M48
; DRILL file {KiCad (5.1.7)-1} date 07/20/21 15:04:55
; FORMAT={-:-/ absolute / metric / decimal}
; #@! TF.CreationDate,2021-07-20T15:04:55-04:00
; #@! TF.GenerationSoftware,Kicad,Pcbnew,(5.1.7)-1
; #@! TF.FileFunction,Plated,1,2,PTH
FMAT,2
METRIC
T1C0.400
T2C0.900
T3C1.000
%
G90
G05
T1
X118.11Y-90.17
X118.11Y-93.98
X118.11Y-97.79
X118.11Y-101.6
X118.11Y-103.505
X118.11Y-108.585
X118.11Y-110.49
X118.11Y-114.935
X123.19Y-90.17
X123.19Y-93.98
X123.19Y-97.155
X123.19Y-101.6
X123.19Y-103.505
X123.19Y-107.95
X123.19Y-111.125
X123.19Y-114.935
X125.095Y-116.84
X126.365Y-90.17
X126.365Y-91.44
X126.365Y-92.71
X126.365Y-93.98
X126.365Y-97.79
X126.365Y-99.06
X126.365Y-100.33
X126.365Y-101.6
X126.365Y-104.775
X126.365Y-106.045
X126.365Y-107.315
X126.365Y-108.585
X126.365Y-111.76
X126.365Y-113.03
X126.365Y-114.3
X126.365Y-115.57
X126.365Y-118.11
X127.635Y-90.805
X127.635Y-92.075
X127.635Y-93.345
X127.635Y-98.425
X127.635Y-99.695
X127.635Y-100.965
X127.635Y-105.41
X127.635Y-106.68
X127.635Y-107.95
X127.635Y-112.395
X127.635Y-113.665
X127.635Y-114.935
X127.635Y-116.84
X128.905Y-90.17
X128.905Y-91.44
X128.905Y-92.71
X128.905Y-93.98
X128.905Y-97.79
X128.905Y-99.06
X128.905Y-100.33
X128.905Y-101.6
X128.905Y-104.775
X128.905Y-106.045
X128.905Y-107.315
X128.905Y-108.585
X128.905Y-111.76
X128.905Y-113.03
X128.905Y-114.3
X128.905Y-115.57
X128.905Y-118.11
X130.175Y-116.84
X131.445Y-118.11
X132.715Y-92.075
X132.715Y-113.665
X132.715Y-116.84
X133.858Y-93.599
X133.858Y-98.171
X133.985Y-90.805
X133.985Y-118.11
X134.112Y-107.823
X134.112Y-112.395
X135.255Y-92.075
X135.255Y-113.665
X135.255Y-116.84
X136.398Y-93.599
X136.398Y-98.171
X136.525Y-90.805
X136.525Y-118.11
X136.652Y-107.823
X136.652Y-112.395
X137.795Y-92.075
X137.795Y-113.665
X137.795Y-116.84
X138.43Y-101.6
X138.43Y-102.87
X138.43Y-104.14
X138.43Y-105.41
X138.938Y-93.599
X138.938Y-98.171
X139.065Y-90.805
X139.065Y-118.11
X139.192Y-107.823
X139.192Y-112.395
X140.335Y-92.075
X140.335Y-113.665
X140.335Y-116.84
X140.97Y-101.6
X140.97Y-102.87
X140.97Y-104.14
X140.97Y-105.41
X141.478Y-93.599
X141.478Y-98.171
X141.605Y-90.805
X141.605Y-118.11
X141.732Y-107.823
X141.732Y-112.395
X142.24Y-113.665
X142.875Y-92.075
X142.875Y-116.84
X143.51Y-93.98
X143.637Y-95.377
X143.637Y-98.933
X143.891Y-108.204
X144.145Y-90.805
X144.145Y-118.11
X144.78Y-94.615
X145.161Y-109.728
X145.288Y-96.647
X145.415Y-101.727
X145.415Y-104.775
X145.415Y-116.84
X146.05Y-100.33
X146.558Y-111.125
X146.685Y-99.06
X146.685Y-118.11
X147.08Y-97.028
X147.447Y-104.521
X147.623Y-101.903
X147.955Y-99.695
X147.955Y-106.68
X147.955Y-114.3
X147.955Y-116.84
X148.59Y-107.95
X148.717Y-96.393
X148.844Y-94.996
X149.225Y-106.68
X149.225Y-114.3
X149.225Y-118.11
X149.86Y-90.805
X149.86Y-94.996
X149.86Y-96.393
X149.86Y-97.79
X149.86Y-107.95
X150.495Y-92.075
X150.495Y-106.68
X150.495Y-114.3
X150.495Y-116.84
X150.876Y-94.996
X150.876Y-96.393
X150.876Y-97.79
X151.13Y-107.95
X151.765Y-90.805
X152.4Y-92.075
X153.67Y-111.125
X154.305Y-104.14
X154.305Y-106.045
X154.305Y-107.95
X154.305Y-109.855
X154.305Y-113.03
X154.305Y-114.935
X154.305Y-116.84
X154.305Y-118.745
X156.845Y-104.775
X156.845Y-106.68
X156.845Y-108.585
X156.845Y-110.49
X156.845Y-112.395
X156.845Y-114.3
X156.845Y-116.205
X156.845Y-118.11
X157.48Y-97.155
X157.48Y-99.06
X157.48Y-100.965
X157.48Y-102.87
X158.75Y-98.425
X159.385Y-97.155
X159.385Y-100.33
X159.385Y-102.235
X159.385Y-104.14
X159.385Y-106.045
X159.385Y-107.95
X159.385Y-109.855
X159.385Y-111.76
X159.385Y-113.665
X159.385Y-115.57
X159.385Y-117.475
X159.385Y-119.38
T2
X134.747Y-101.6
X134.747Y-104.14
T3
X120.459Y-94.408
X120.459Y-96.948
X120.459Y-107.933
X120.459Y-110.473
T0
M30
