%FSLAX45Y45*%
G04 Gerber Fmt 4.5, Leading zero omitted, Abs format (unit mm)*
G04 Created by KiCad (PCBNEW (5.1.7)-1) date 2021-07-20 15:05:22*
%MOMM*%
%LPD*%
G01*
G04 APERTURE LIST*
%TA.AperFunction,Profile*%
%ADD10C,0.050000*%
%TD*%
%ADD11C,0.200000*%
%ADD12C,0.300000*%
G04 APERTURE END LIST*
D10*
X11645900Y-8940800D02*
X16090900Y-8940800D01*
X16090900Y-8940800D02*
X16090900Y-12115800D01*
X11645900Y-12115800D02*
X16090900Y-12115800D01*
X11645900Y-8940800D02*
X11645900Y-12115800D01*
D11*
X11791000Y-8997000D02*
X11831000Y-9037000D01*
X11831000Y-8997000D02*
X11791000Y-9037000D01*
X11791000Y-9378000D02*
X11831000Y-9418000D01*
X11831000Y-9378000D02*
X11791000Y-9418000D01*
X11791000Y-9759000D02*
X11831000Y-9799000D01*
X11831000Y-9759000D02*
X11791000Y-9799000D01*
X11791000Y-10140000D02*
X11831000Y-10180000D01*
X11831000Y-10140000D02*
X11791000Y-10180000D01*
X11791000Y-10330500D02*
X11831000Y-10370500D01*
X11831000Y-10330500D02*
X11791000Y-10370500D01*
X11791000Y-10838500D02*
X11831000Y-10878500D01*
X11831000Y-10838500D02*
X11791000Y-10878500D01*
X11791000Y-11029000D02*
X11831000Y-11069000D01*
X11831000Y-11029000D02*
X11791000Y-11069000D01*
X11791000Y-11473500D02*
X11831000Y-11513500D01*
X11831000Y-11473500D02*
X11791000Y-11513500D01*
X12299000Y-8997000D02*
X12339000Y-9037000D01*
X12339000Y-8997000D02*
X12299000Y-9037000D01*
X12299000Y-9378000D02*
X12339000Y-9418000D01*
X12339000Y-9378000D02*
X12299000Y-9418000D01*
X12299000Y-9695500D02*
X12339000Y-9735500D01*
X12339000Y-9695500D02*
X12299000Y-9735500D01*
X12299000Y-10140000D02*
X12339000Y-10180000D01*
X12339000Y-10140000D02*
X12299000Y-10180000D01*
X12299000Y-10330500D02*
X12339000Y-10370500D01*
X12339000Y-10330500D02*
X12299000Y-10370500D01*
X12299000Y-10775000D02*
X12339000Y-10815000D01*
X12339000Y-10775000D02*
X12299000Y-10815000D01*
X12299000Y-11092500D02*
X12339000Y-11132500D01*
X12339000Y-11092500D02*
X12299000Y-11132500D01*
X12299000Y-11473500D02*
X12339000Y-11513500D01*
X12339000Y-11473500D02*
X12299000Y-11513500D01*
X12489500Y-11664000D02*
X12529500Y-11704000D01*
X12529500Y-11664000D02*
X12489500Y-11704000D01*
X12616500Y-8997000D02*
X12656500Y-9037000D01*
X12656500Y-8997000D02*
X12616500Y-9037000D01*
X12616500Y-9124000D02*
X12656500Y-9164000D01*
X12656500Y-9124000D02*
X12616500Y-9164000D01*
X12616500Y-9251000D02*
X12656500Y-9291000D01*
X12656500Y-9251000D02*
X12616500Y-9291000D01*
X12616500Y-9378000D02*
X12656500Y-9418000D01*
X12656500Y-9378000D02*
X12616500Y-9418000D01*
X12616500Y-9759000D02*
X12656500Y-9799000D01*
X12656500Y-9759000D02*
X12616500Y-9799000D01*
X12616500Y-9886000D02*
X12656500Y-9926000D01*
X12656500Y-9886000D02*
X12616500Y-9926000D01*
X12616500Y-10013000D02*
X12656500Y-10053000D01*
X12656500Y-10013000D02*
X12616500Y-10053000D01*
X12616500Y-10140000D02*
X12656500Y-10180000D01*
X12656500Y-10140000D02*
X12616500Y-10180000D01*
X12616500Y-10457500D02*
X12656500Y-10497500D01*
X12656500Y-10457500D02*
X12616500Y-10497500D01*
X12616500Y-10584500D02*
X12656500Y-10624500D01*
X12656500Y-10584500D02*
X12616500Y-10624500D01*
X12616500Y-10711500D02*
X12656500Y-10751500D01*
X12656500Y-10711500D02*
X12616500Y-10751500D01*
X12616500Y-10838500D02*
X12656500Y-10878500D01*
X12656500Y-10838500D02*
X12616500Y-10878500D01*
X12616500Y-11156000D02*
X12656500Y-11196000D01*
X12656500Y-11156000D02*
X12616500Y-11196000D01*
X12616500Y-11283000D02*
X12656500Y-11323000D01*
X12656500Y-11283000D02*
X12616500Y-11323000D01*
X12616500Y-11410000D02*
X12656500Y-11450000D01*
X12656500Y-11410000D02*
X12616500Y-11450000D01*
X12616500Y-11537000D02*
X12656500Y-11577000D01*
X12656500Y-11537000D02*
X12616500Y-11577000D01*
X12616500Y-11791000D02*
X12656500Y-11831000D01*
X12656500Y-11791000D02*
X12616500Y-11831000D01*
X12743500Y-9060500D02*
X12783500Y-9100500D01*
X12783500Y-9060500D02*
X12743500Y-9100500D01*
X12743500Y-9187500D02*
X12783500Y-9227500D01*
X12783500Y-9187500D02*
X12743500Y-9227500D01*
X12743500Y-9314500D02*
X12783500Y-9354500D01*
X12783500Y-9314500D02*
X12743500Y-9354500D01*
X12743500Y-9822500D02*
X12783500Y-9862500D01*
X12783500Y-9822500D02*
X12743500Y-9862500D01*
X12743500Y-9949500D02*
X12783500Y-9989500D01*
X12783500Y-9949500D02*
X12743500Y-9989500D01*
X12743500Y-10076500D02*
X12783500Y-10116500D01*
X12783500Y-10076500D02*
X12743500Y-10116500D01*
X12743500Y-10521000D02*
X12783500Y-10561000D01*
X12783500Y-10521000D02*
X12743500Y-10561000D01*
X12743500Y-10648000D02*
X12783500Y-10688000D01*
X12783500Y-10648000D02*
X12743500Y-10688000D01*
X12743500Y-10775000D02*
X12783500Y-10815000D01*
X12783500Y-10775000D02*
X12743500Y-10815000D01*
X12743500Y-11219500D02*
X12783500Y-11259500D01*
X12783500Y-11219500D02*
X12743500Y-11259500D01*
X12743500Y-11346500D02*
X12783500Y-11386500D01*
X12783500Y-11346500D02*
X12743500Y-11386500D01*
X12743500Y-11473500D02*
X12783500Y-11513500D01*
X12783500Y-11473500D02*
X12743500Y-11513500D01*
X12743500Y-11664000D02*
X12783500Y-11704000D01*
X12783500Y-11664000D02*
X12743500Y-11704000D01*
X12870500Y-8997000D02*
X12910500Y-9037000D01*
X12910500Y-8997000D02*
X12870500Y-9037000D01*
X12870500Y-9124000D02*
X12910500Y-9164000D01*
X12910500Y-9124000D02*
X12870500Y-9164000D01*
X12870500Y-9251000D02*
X12910500Y-9291000D01*
X12910500Y-9251000D02*
X12870500Y-9291000D01*
X12870500Y-9378000D02*
X12910500Y-9418000D01*
X12910500Y-9378000D02*
X12870500Y-9418000D01*
X12870500Y-9759000D02*
X12910500Y-9799000D01*
X12910500Y-9759000D02*
X12870500Y-9799000D01*
X12870500Y-9886000D02*
X12910500Y-9926000D01*
X12910500Y-9886000D02*
X12870500Y-9926000D01*
X12870500Y-10013000D02*
X12910500Y-10053000D01*
X12910500Y-10013000D02*
X12870500Y-10053000D01*
X12870500Y-10140000D02*
X12910500Y-10180000D01*
X12910500Y-10140000D02*
X12870500Y-10180000D01*
X12870500Y-10457500D02*
X12910500Y-10497500D01*
X12910500Y-10457500D02*
X12870500Y-10497500D01*
X12870500Y-10584500D02*
X12910500Y-10624500D01*
X12910500Y-10584500D02*
X12870500Y-10624500D01*
X12870500Y-10711500D02*
X12910500Y-10751500D01*
X12910500Y-10711500D02*
X12870500Y-10751500D01*
X12870500Y-10838500D02*
X12910500Y-10878500D01*
X12910500Y-10838500D02*
X12870500Y-10878500D01*
X12870500Y-11156000D02*
X12910500Y-11196000D01*
X12910500Y-11156000D02*
X12870500Y-11196000D01*
X12870500Y-11283000D02*
X12910500Y-11323000D01*
X12910500Y-11283000D02*
X12870500Y-11323000D01*
X12870500Y-11410000D02*
X12910500Y-11450000D01*
X12910500Y-11410000D02*
X12870500Y-11450000D01*
X12870500Y-11537000D02*
X12910500Y-11577000D01*
X12910500Y-11537000D02*
X12870500Y-11577000D01*
X12870500Y-11791000D02*
X12910500Y-11831000D01*
X12910500Y-11791000D02*
X12870500Y-11831000D01*
X12997500Y-11664000D02*
X13037500Y-11704000D01*
X13037500Y-11664000D02*
X12997500Y-11704000D01*
X13124500Y-11791000D02*
X13164500Y-11831000D01*
X13164500Y-11791000D02*
X13124500Y-11831000D01*
X13251500Y-9187500D02*
X13291500Y-9227500D01*
X13291500Y-9187500D02*
X13251500Y-9227500D01*
X13251500Y-11346500D02*
X13291500Y-11386500D01*
X13291500Y-11346500D02*
X13251500Y-11386500D01*
X13251500Y-11664000D02*
X13291500Y-11704000D01*
X13291500Y-11664000D02*
X13251500Y-11704000D01*
X13365800Y-9339900D02*
X13405800Y-9379900D01*
X13405800Y-9339900D02*
X13365800Y-9379900D01*
X13365800Y-9797100D02*
X13405800Y-9837100D01*
X13405800Y-9797100D02*
X13365800Y-9837100D01*
X13378500Y-9060500D02*
X13418500Y-9100500D01*
X13418500Y-9060500D02*
X13378500Y-9100500D01*
X13378500Y-11791000D02*
X13418500Y-11831000D01*
X13418500Y-11791000D02*
X13378500Y-11831000D01*
X13391200Y-10762300D02*
X13431200Y-10802300D01*
X13431200Y-10762300D02*
X13391200Y-10802300D01*
X13391200Y-11219500D02*
X13431200Y-11259500D01*
X13431200Y-11219500D02*
X13391200Y-11259500D01*
X13505500Y-9187500D02*
X13545500Y-9227500D01*
X13545500Y-9187500D02*
X13505500Y-9227500D01*
X13505500Y-11346500D02*
X13545500Y-11386500D01*
X13545500Y-11346500D02*
X13505500Y-11386500D01*
X13505500Y-11664000D02*
X13545500Y-11704000D01*
X13545500Y-11664000D02*
X13505500Y-11704000D01*
X13619800Y-9339900D02*
X13659800Y-9379900D01*
X13659800Y-9339900D02*
X13619800Y-9379900D01*
X13619800Y-9797100D02*
X13659800Y-9837100D01*
X13659800Y-9797100D02*
X13619800Y-9837100D01*
X13632500Y-9060500D02*
X13672500Y-9100500D01*
X13672500Y-9060500D02*
X13632500Y-9100500D01*
X13632500Y-11791000D02*
X13672500Y-11831000D01*
X13672500Y-11791000D02*
X13632500Y-11831000D01*
X13645200Y-10762300D02*
X13685200Y-10802300D01*
X13685200Y-10762300D02*
X13645200Y-10802300D01*
X13645200Y-11219500D02*
X13685200Y-11259500D01*
X13685200Y-11219500D02*
X13645200Y-11259500D01*
X13759500Y-9187500D02*
X13799500Y-9227500D01*
X13799500Y-9187500D02*
X13759500Y-9227500D01*
X13759500Y-11346500D02*
X13799500Y-11386500D01*
X13799500Y-11346500D02*
X13759500Y-11386500D01*
X13759500Y-11664000D02*
X13799500Y-11704000D01*
X13799500Y-11664000D02*
X13759500Y-11704000D01*
X13823000Y-10140000D02*
X13863000Y-10180000D01*
X13863000Y-10140000D02*
X13823000Y-10180000D01*
X13823000Y-10267000D02*
X13863000Y-10307000D01*
X13863000Y-10267000D02*
X13823000Y-10307000D01*
X13823000Y-10394000D02*
X13863000Y-10434000D01*
X13863000Y-10394000D02*
X13823000Y-10434000D01*
X13823000Y-10521000D02*
X13863000Y-10561000D01*
X13863000Y-10521000D02*
X13823000Y-10561000D01*
X13873800Y-9339900D02*
X13913800Y-9379900D01*
X13913800Y-9339900D02*
X13873800Y-9379900D01*
X13873800Y-9797100D02*
X13913800Y-9837100D01*
X13913800Y-9797100D02*
X13873800Y-9837100D01*
X13886500Y-9060500D02*
X13926500Y-9100500D01*
X13926500Y-9060500D02*
X13886500Y-9100500D01*
X13886500Y-11791000D02*
X13926500Y-11831000D01*
X13926500Y-11791000D02*
X13886500Y-11831000D01*
X13899200Y-10762300D02*
X13939200Y-10802300D01*
X13939200Y-10762300D02*
X13899200Y-10802300D01*
X13899200Y-11219500D02*
X13939200Y-11259500D01*
X13939200Y-11219500D02*
X13899200Y-11259500D01*
X14013500Y-9187500D02*
X14053500Y-9227500D01*
X14053500Y-9187500D02*
X14013500Y-9227500D01*
X14013500Y-11346500D02*
X14053500Y-11386500D01*
X14053500Y-11346500D02*
X14013500Y-11386500D01*
X14013500Y-11664000D02*
X14053500Y-11704000D01*
X14053500Y-11664000D02*
X14013500Y-11704000D01*
X14077000Y-10140000D02*
X14117000Y-10180000D01*
X14117000Y-10140000D02*
X14077000Y-10180000D01*
X14077000Y-10267000D02*
X14117000Y-10307000D01*
X14117000Y-10267000D02*
X14077000Y-10307000D01*
X14077000Y-10394000D02*
X14117000Y-10434000D01*
X14117000Y-10394000D02*
X14077000Y-10434000D01*
X14077000Y-10521000D02*
X14117000Y-10561000D01*
X14117000Y-10521000D02*
X14077000Y-10561000D01*
X14127800Y-9339900D02*
X14167800Y-9379900D01*
X14167800Y-9339900D02*
X14127800Y-9379900D01*
X14127800Y-9797100D02*
X14167800Y-9837100D01*
X14167800Y-9797100D02*
X14127800Y-9837100D01*
X14140500Y-9060500D02*
X14180500Y-9100500D01*
X14180500Y-9060500D02*
X14140500Y-9100500D01*
X14140500Y-11791000D02*
X14180500Y-11831000D01*
X14180500Y-11791000D02*
X14140500Y-11831000D01*
X14153200Y-10762300D02*
X14193200Y-10802300D01*
X14193200Y-10762300D02*
X14153200Y-10802300D01*
X14153200Y-11219500D02*
X14193200Y-11259500D01*
X14193200Y-11219500D02*
X14153200Y-11259500D01*
X14204000Y-11346500D02*
X14244000Y-11386500D01*
X14244000Y-11346500D02*
X14204000Y-11386500D01*
X14267500Y-9187500D02*
X14307500Y-9227500D01*
X14307500Y-9187500D02*
X14267500Y-9227500D01*
X14267500Y-11664000D02*
X14307500Y-11704000D01*
X14307500Y-11664000D02*
X14267500Y-11704000D01*
X14331000Y-9378000D02*
X14371000Y-9418000D01*
X14371000Y-9378000D02*
X14331000Y-9418000D01*
X14343700Y-9517700D02*
X14383700Y-9557700D01*
X14383700Y-9517700D02*
X14343700Y-9557700D01*
X14343700Y-9873300D02*
X14383700Y-9913300D01*
X14383700Y-9873300D02*
X14343700Y-9913300D01*
X14369100Y-10800400D02*
X14409100Y-10840400D01*
X14409100Y-10800400D02*
X14369100Y-10840400D01*
X14394500Y-9060500D02*
X14434500Y-9100500D01*
X14434500Y-9060500D02*
X14394500Y-9100500D01*
X14394500Y-11791000D02*
X14434500Y-11831000D01*
X14434500Y-11791000D02*
X14394500Y-11831000D01*
X14458000Y-9441500D02*
X14498000Y-9481500D01*
X14498000Y-9441500D02*
X14458000Y-9481500D01*
X14496100Y-10952800D02*
X14536100Y-10992800D01*
X14536100Y-10952800D02*
X14496100Y-10992800D01*
X14508800Y-9644700D02*
X14548800Y-9684700D01*
X14548800Y-9644700D02*
X14508800Y-9684700D01*
X14521500Y-10152700D02*
X14561500Y-10192700D01*
X14561500Y-10152700D02*
X14521500Y-10192700D01*
X14521500Y-10457500D02*
X14561500Y-10497500D01*
X14561500Y-10457500D02*
X14521500Y-10497500D01*
X14521500Y-11664000D02*
X14561500Y-11704000D01*
X14561500Y-11664000D02*
X14521500Y-11704000D01*
X14585000Y-10013000D02*
X14625000Y-10053000D01*
X14625000Y-10013000D02*
X14585000Y-10053000D01*
X14635800Y-11092500D02*
X14675800Y-11132500D01*
X14675800Y-11092500D02*
X14635800Y-11132500D01*
X14648500Y-9886000D02*
X14688500Y-9926000D01*
X14688500Y-9886000D02*
X14648500Y-9926000D01*
X14648500Y-11791000D02*
X14688500Y-11831000D01*
X14688500Y-11791000D02*
X14648500Y-11831000D01*
X14688000Y-9682800D02*
X14728000Y-9722800D01*
X14728000Y-9682800D02*
X14688000Y-9722800D01*
X14724700Y-10432100D02*
X14764700Y-10472100D01*
X14764700Y-10432100D02*
X14724700Y-10472100D01*
X14742300Y-10170300D02*
X14782300Y-10210300D01*
X14782300Y-10170300D02*
X14742300Y-10210300D01*
X14775500Y-9949500D02*
X14815500Y-9989500D01*
X14815500Y-9949500D02*
X14775500Y-9989500D01*
X14775500Y-10648000D02*
X14815500Y-10688000D01*
X14815500Y-10648000D02*
X14775500Y-10688000D01*
X14775500Y-11410000D02*
X14815500Y-11450000D01*
X14815500Y-11410000D02*
X14775500Y-11450000D01*
X14775500Y-11664000D02*
X14815500Y-11704000D01*
X14815500Y-11664000D02*
X14775500Y-11704000D01*
X14839000Y-10775000D02*
X14879000Y-10815000D01*
X14879000Y-10775000D02*
X14839000Y-10815000D01*
X14851700Y-9619300D02*
X14891700Y-9659300D01*
X14891700Y-9619300D02*
X14851700Y-9659300D01*
X14864400Y-9479600D02*
X14904400Y-9519600D01*
X14904400Y-9479600D02*
X14864400Y-9519600D01*
X14902500Y-10648000D02*
X14942500Y-10688000D01*
X14942500Y-10648000D02*
X14902500Y-10688000D01*
X14902500Y-11410000D02*
X14942500Y-11450000D01*
X14942500Y-11410000D02*
X14902500Y-11450000D01*
X14902500Y-11791000D02*
X14942500Y-11831000D01*
X14942500Y-11791000D02*
X14902500Y-11831000D01*
X14966000Y-9060500D02*
X15006000Y-9100500D01*
X15006000Y-9060500D02*
X14966000Y-9100500D01*
X14966000Y-9479600D02*
X15006000Y-9519600D01*
X15006000Y-9479600D02*
X14966000Y-9519600D01*
X14966000Y-9619300D02*
X15006000Y-9659300D01*
X15006000Y-9619300D02*
X14966000Y-9659300D01*
X14966000Y-9759000D02*
X15006000Y-9799000D01*
X15006000Y-9759000D02*
X14966000Y-9799000D01*
X14966000Y-10775000D02*
X15006000Y-10815000D01*
X15006000Y-10775000D02*
X14966000Y-10815000D01*
X15029500Y-9187500D02*
X15069500Y-9227500D01*
X15069500Y-9187500D02*
X15029500Y-9227500D01*
X15029500Y-10648000D02*
X15069500Y-10688000D01*
X15069500Y-10648000D02*
X15029500Y-10688000D01*
X15029500Y-11410000D02*
X15069500Y-11450000D01*
X15069500Y-11410000D02*
X15029500Y-11450000D01*
X15029500Y-11664000D02*
X15069500Y-11704000D01*
X15069500Y-11664000D02*
X15029500Y-11704000D01*
X15067600Y-9479600D02*
X15107600Y-9519600D01*
X15107600Y-9479600D02*
X15067600Y-9519600D01*
X15067600Y-9619300D02*
X15107600Y-9659300D01*
X15107600Y-9619300D02*
X15067600Y-9659300D01*
X15067600Y-9759000D02*
X15107600Y-9799000D01*
X15107600Y-9759000D02*
X15067600Y-9799000D01*
X15093000Y-10775000D02*
X15133000Y-10815000D01*
X15133000Y-10775000D02*
X15093000Y-10815000D01*
X15156500Y-9060500D02*
X15196500Y-9100500D01*
X15196500Y-9060500D02*
X15156500Y-9100500D01*
X15220000Y-9187500D02*
X15260000Y-9227500D01*
X15260000Y-9187500D02*
X15220000Y-9227500D01*
X15347000Y-11092500D02*
X15387000Y-11132500D01*
X15387000Y-11092500D02*
X15347000Y-11132500D01*
X15410500Y-10394000D02*
X15450500Y-10434000D01*
X15450500Y-10394000D02*
X15410500Y-10434000D01*
X15410500Y-10584500D02*
X15450500Y-10624500D01*
X15450500Y-10584500D02*
X15410500Y-10624500D01*
X15410500Y-10775000D02*
X15450500Y-10815000D01*
X15450500Y-10775000D02*
X15410500Y-10815000D01*
X15410500Y-10965500D02*
X15450500Y-11005500D01*
X15450500Y-10965500D02*
X15410500Y-11005500D01*
X15410500Y-11283000D02*
X15450500Y-11323000D01*
X15450500Y-11283000D02*
X15410500Y-11323000D01*
X15410500Y-11473500D02*
X15450500Y-11513500D01*
X15450500Y-11473500D02*
X15410500Y-11513500D01*
X15410500Y-11664000D02*
X15450500Y-11704000D01*
X15450500Y-11664000D02*
X15410500Y-11704000D01*
X15410500Y-11854500D02*
X15450500Y-11894500D01*
X15450500Y-11854500D02*
X15410500Y-11894500D01*
X15664500Y-10457500D02*
X15704500Y-10497500D01*
X15704500Y-10457500D02*
X15664500Y-10497500D01*
X15664500Y-10648000D02*
X15704500Y-10688000D01*
X15704500Y-10648000D02*
X15664500Y-10688000D01*
X15664500Y-10838500D02*
X15704500Y-10878500D01*
X15704500Y-10838500D02*
X15664500Y-10878500D01*
X15664500Y-11029000D02*
X15704500Y-11069000D01*
X15704500Y-11029000D02*
X15664500Y-11069000D01*
X15664500Y-11219500D02*
X15704500Y-11259500D01*
X15704500Y-11219500D02*
X15664500Y-11259500D01*
X15664500Y-11410000D02*
X15704500Y-11450000D01*
X15704500Y-11410000D02*
X15664500Y-11450000D01*
X15664500Y-11600500D02*
X15704500Y-11640500D01*
X15704500Y-11600500D02*
X15664500Y-11640500D01*
X15664500Y-11791000D02*
X15704500Y-11831000D01*
X15704500Y-11791000D02*
X15664500Y-11831000D01*
X15728000Y-9695500D02*
X15768000Y-9735500D01*
X15768000Y-9695500D02*
X15728000Y-9735500D01*
X15728000Y-9886000D02*
X15768000Y-9926000D01*
X15768000Y-9886000D02*
X15728000Y-9926000D01*
X15728000Y-10076500D02*
X15768000Y-10116500D01*
X15768000Y-10076500D02*
X15728000Y-10116500D01*
X15728000Y-10267000D02*
X15768000Y-10307000D01*
X15768000Y-10267000D02*
X15728000Y-10307000D01*
X15855000Y-9822500D02*
X15895000Y-9862500D01*
X15895000Y-9822500D02*
X15855000Y-9862500D01*
X15918500Y-9695500D02*
X15958500Y-9735500D01*
X15958500Y-9695500D02*
X15918500Y-9735500D01*
X15918500Y-10013000D02*
X15958500Y-10053000D01*
X15958500Y-10013000D02*
X15918500Y-10053000D01*
X15918500Y-10203500D02*
X15958500Y-10243500D01*
X15958500Y-10203500D02*
X15918500Y-10243500D01*
X15918500Y-10394000D02*
X15958500Y-10434000D01*
X15958500Y-10394000D02*
X15918500Y-10434000D01*
X15918500Y-10584500D02*
X15958500Y-10624500D01*
X15958500Y-10584500D02*
X15918500Y-10624500D01*
X15918500Y-10775000D02*
X15958500Y-10815000D01*
X15958500Y-10775000D02*
X15918500Y-10815000D01*
X15918500Y-10965500D02*
X15958500Y-11005500D01*
X15958500Y-10965500D02*
X15918500Y-11005500D01*
X15918500Y-11156000D02*
X15958500Y-11196000D01*
X15958500Y-11156000D02*
X15918500Y-11196000D01*
X15918500Y-11346500D02*
X15958500Y-11386500D01*
X15958500Y-11346500D02*
X15918500Y-11386500D01*
X15918500Y-11537000D02*
X15958500Y-11577000D01*
X15958500Y-11537000D02*
X15918500Y-11577000D01*
X15918500Y-11727500D02*
X15958500Y-11767500D01*
X15958500Y-11727500D02*
X15918500Y-11767500D01*
X15918500Y-11918000D02*
X15958500Y-11958000D01*
X15958500Y-11918000D02*
X15918500Y-11958000D01*
X13519700Y-10160000D02*
G75*
G03*
X13519700Y-10160000I-45000J0D01*
G01*
X13519700Y-10414000D02*
G75*
G03*
X13519700Y-10414000I-45000J0D01*
G01*
X12045900Y-9390800D02*
X12045900Y-9490800D01*
X11995900Y-9440800D02*
X12095900Y-9440800D01*
X12045900Y-9644800D02*
X12045900Y-9744800D01*
X11995900Y-9694800D02*
X12095900Y-9694800D01*
X12045900Y-10743300D02*
X12045900Y-10843300D01*
X11995900Y-10793300D02*
X12095900Y-10793300D01*
X12045900Y-10997300D02*
X12045900Y-11097300D01*
X11995900Y-11047300D02*
X12095900Y-11047300D01*
D12*
X11929828Y-12584014D02*
X11929828Y-12284014D01*
X12001257Y-12284014D01*
X12044114Y-12298300D01*
X12072686Y-12326871D01*
X12086971Y-12355443D01*
X12101257Y-12412586D01*
X12101257Y-12455443D01*
X12086971Y-12512586D01*
X12072686Y-12541157D01*
X12044114Y-12569729D01*
X12001257Y-12584014D01*
X11929828Y-12584014D01*
X12229828Y-12584014D02*
X12229828Y-12384014D01*
X12229828Y-12441157D02*
X12244114Y-12412586D01*
X12258400Y-12398300D01*
X12286971Y-12384014D01*
X12315543Y-12384014D01*
X12415543Y-12584014D02*
X12415543Y-12384014D01*
X12415543Y-12284014D02*
X12401257Y-12298300D01*
X12415543Y-12312586D01*
X12429828Y-12298300D01*
X12415543Y-12284014D01*
X12415543Y-12312586D01*
X12601257Y-12584014D02*
X12572686Y-12569729D01*
X12558400Y-12541157D01*
X12558400Y-12284014D01*
X12758400Y-12584014D02*
X12729828Y-12569729D01*
X12715543Y-12541157D01*
X12715543Y-12284014D01*
X13101257Y-12584014D02*
X13101257Y-12284014D01*
X13201257Y-12498300D01*
X13301257Y-12284014D01*
X13301257Y-12584014D01*
X13572686Y-12584014D02*
X13572686Y-12426871D01*
X13558400Y-12398300D01*
X13529828Y-12384014D01*
X13472686Y-12384014D01*
X13444114Y-12398300D01*
X13572686Y-12569729D02*
X13544114Y-12584014D01*
X13472686Y-12584014D01*
X13444114Y-12569729D01*
X13429828Y-12541157D01*
X13429828Y-12512586D01*
X13444114Y-12484014D01*
X13472686Y-12469729D01*
X13544114Y-12469729D01*
X13572686Y-12455443D01*
X13715543Y-12384014D02*
X13715543Y-12684014D01*
X13715543Y-12398300D02*
X13744114Y-12384014D01*
X13801257Y-12384014D01*
X13829828Y-12398300D01*
X13844114Y-12412586D01*
X13858400Y-12441157D01*
X13858400Y-12526871D01*
X13844114Y-12555443D01*
X13829828Y-12569729D01*
X13801257Y-12584014D01*
X13744114Y-12584014D01*
X13715543Y-12569729D01*
X13986971Y-12555443D02*
X14001257Y-12569729D01*
X13986971Y-12584014D01*
X13972686Y-12569729D01*
X13986971Y-12555443D01*
X13986971Y-12584014D01*
X13986971Y-12398300D02*
X14001257Y-12412586D01*
X13986971Y-12426871D01*
X13972686Y-12412586D01*
X13986971Y-12398300D01*
X13986971Y-12426871D01*
X11603400Y-13058300D02*
X11643400Y-13098300D01*
X11643400Y-13058300D02*
X11603400Y-13098300D01*
X11986971Y-12914014D02*
X12015543Y-12914014D01*
X12044114Y-12928300D01*
X12058400Y-12942586D01*
X12072686Y-12971157D01*
X12086971Y-13028300D01*
X12086971Y-13099729D01*
X12072686Y-13156871D01*
X12058400Y-13185443D01*
X12044114Y-13199729D01*
X12015543Y-13214014D01*
X11986971Y-13214014D01*
X11958400Y-13199729D01*
X11944114Y-13185443D01*
X11929828Y-13156871D01*
X11915543Y-13099729D01*
X11915543Y-13028300D01*
X11929828Y-12971157D01*
X11944114Y-12942586D01*
X11958400Y-12928300D01*
X11986971Y-12914014D01*
X12215543Y-13185443D02*
X12229828Y-13199729D01*
X12215543Y-13214014D01*
X12201257Y-13199729D01*
X12215543Y-13185443D01*
X12215543Y-13214014D01*
X12486971Y-13014014D02*
X12486971Y-13214014D01*
X12415543Y-12899729D02*
X12344114Y-13114014D01*
X12529828Y-13114014D01*
X12701257Y-12914014D02*
X12729828Y-12914014D01*
X12758400Y-12928300D01*
X12772686Y-12942586D01*
X12786971Y-12971157D01*
X12801257Y-13028300D01*
X12801257Y-13099729D01*
X12786971Y-13156871D01*
X12772686Y-13185443D01*
X12758400Y-13199729D01*
X12729828Y-13214014D01*
X12701257Y-13214014D01*
X12672686Y-13199729D01*
X12658400Y-13185443D01*
X12644114Y-13156871D01*
X12629828Y-13099729D01*
X12629828Y-13028300D01*
X12644114Y-12971157D01*
X12658400Y-12942586D01*
X12672686Y-12928300D01*
X12701257Y-12914014D01*
X12929828Y-13214014D02*
X12929828Y-13014014D01*
X12929828Y-13042586D02*
X12944114Y-13028300D01*
X12972686Y-13014014D01*
X13015543Y-13014014D01*
X13044114Y-13028300D01*
X13058400Y-13056871D01*
X13058400Y-13214014D01*
X13058400Y-13056871D02*
X13072686Y-13028300D01*
X13101257Y-13014014D01*
X13144114Y-13014014D01*
X13172686Y-13028300D01*
X13186971Y-13056871D01*
X13186971Y-13214014D01*
X13329828Y-13214014D02*
X13329828Y-13014014D01*
X13329828Y-13042586D02*
X13344114Y-13028300D01*
X13372686Y-13014014D01*
X13415543Y-13014014D01*
X13444114Y-13028300D01*
X13458400Y-13056871D01*
X13458400Y-13214014D01*
X13458400Y-13056871D02*
X13472686Y-13028300D01*
X13501257Y-13014014D01*
X13544114Y-13014014D01*
X13572686Y-13028300D01*
X13586971Y-13056871D01*
X13586971Y-13214014D01*
X14172686Y-12899729D02*
X13915543Y-13285443D01*
X14558400Y-12914014D02*
X14586971Y-12914014D01*
X14615543Y-12928300D01*
X14629828Y-12942586D01*
X14644114Y-12971157D01*
X14658400Y-13028300D01*
X14658400Y-13099729D01*
X14644114Y-13156871D01*
X14629828Y-13185443D01*
X14615543Y-13199729D01*
X14586971Y-13214014D01*
X14558400Y-13214014D01*
X14529828Y-13199729D01*
X14515543Y-13185443D01*
X14501257Y-13156871D01*
X14486971Y-13099729D01*
X14486971Y-13028300D01*
X14501257Y-12971157D01*
X14515543Y-12942586D01*
X14529828Y-12928300D01*
X14558400Y-12914014D01*
X14786971Y-13185443D02*
X14801257Y-13199729D01*
X14786971Y-13214014D01*
X14772686Y-13199729D01*
X14786971Y-13185443D01*
X14786971Y-13214014D01*
X14986971Y-12914014D02*
X15015543Y-12914014D01*
X15044114Y-12928300D01*
X15058400Y-12942586D01*
X15072686Y-12971157D01*
X15086971Y-13028300D01*
X15086971Y-13099729D01*
X15072686Y-13156871D01*
X15058400Y-13185443D01*
X15044114Y-13199729D01*
X15015543Y-13214014D01*
X14986971Y-13214014D01*
X14958400Y-13199729D01*
X14944114Y-13185443D01*
X14929828Y-13156871D01*
X14915543Y-13099729D01*
X14915543Y-13028300D01*
X14929828Y-12971157D01*
X14944114Y-12942586D01*
X14958400Y-12928300D01*
X14986971Y-12914014D01*
X15372686Y-13214014D02*
X15201257Y-13214014D01*
X15286971Y-13214014D02*
X15286971Y-12914014D01*
X15258400Y-12956871D01*
X15229828Y-12985443D01*
X15201257Y-12999729D01*
X15629828Y-12914014D02*
X15572686Y-12914014D01*
X15544114Y-12928300D01*
X15529828Y-12942586D01*
X15501257Y-12985443D01*
X15486971Y-13042586D01*
X15486971Y-13156871D01*
X15501257Y-13185443D01*
X15515543Y-13199729D01*
X15544114Y-13214014D01*
X15601257Y-13214014D01*
X15629828Y-13199729D01*
X15644114Y-13185443D01*
X15658400Y-13156871D01*
X15658400Y-13085443D01*
X15644114Y-13056871D01*
X15629828Y-13042586D01*
X15601257Y-13028300D01*
X15544114Y-13028300D01*
X15515543Y-13042586D01*
X15501257Y-13056871D01*
X15486971Y-13085443D01*
X15772686Y-12914014D02*
X15772686Y-12971157D01*
X15886971Y-12914014D02*
X15886971Y-12971157D01*
X16329828Y-13328300D02*
X16315543Y-13314014D01*
X16286971Y-13271157D01*
X16272686Y-13242586D01*
X16258400Y-13199729D01*
X16244114Y-13128300D01*
X16244114Y-13071157D01*
X16258400Y-12999729D01*
X16272686Y-12956871D01*
X16286971Y-12928300D01*
X16315543Y-12885443D01*
X16329828Y-12871157D01*
X16601257Y-13214014D02*
X16429828Y-13214014D01*
X16515543Y-13214014D02*
X16515543Y-12914014D01*
X16486971Y-12956871D01*
X16458400Y-12985443D01*
X16429828Y-12999729D01*
X16744114Y-13214014D02*
X16801257Y-13214014D01*
X16829828Y-13199729D01*
X16844114Y-13185443D01*
X16872686Y-13142586D01*
X16886971Y-13085443D01*
X16886971Y-12971157D01*
X16872686Y-12942586D01*
X16858400Y-12928300D01*
X16829828Y-12914014D01*
X16772686Y-12914014D01*
X16744114Y-12928300D01*
X16729828Y-12942586D01*
X16715543Y-12971157D01*
X16715543Y-13042586D01*
X16729828Y-13071157D01*
X16744114Y-13085443D01*
X16772686Y-13099729D01*
X16829828Y-13099729D01*
X16858400Y-13085443D01*
X16872686Y-13071157D01*
X16886971Y-13042586D01*
X17172686Y-13214014D02*
X17001257Y-13214014D01*
X17086971Y-13214014D02*
X17086971Y-12914014D01*
X17058400Y-12956871D01*
X17029828Y-12985443D01*
X17001257Y-12999729D01*
X17529828Y-13214014D02*
X17529828Y-12914014D01*
X17658400Y-13214014D02*
X17658400Y-13056871D01*
X17644114Y-13028300D01*
X17615543Y-13014014D01*
X17572686Y-13014014D01*
X17544114Y-13028300D01*
X17529828Y-13042586D01*
X17844114Y-13214014D02*
X17815543Y-13199729D01*
X17801257Y-13185443D01*
X17786971Y-13156871D01*
X17786971Y-13071157D01*
X17801257Y-13042586D01*
X17815543Y-13028300D01*
X17844114Y-13014014D01*
X17886971Y-13014014D01*
X17915543Y-13028300D01*
X17929828Y-13042586D01*
X17944114Y-13071157D01*
X17944114Y-13156871D01*
X17929828Y-13185443D01*
X17915543Y-13199729D01*
X17886971Y-13214014D01*
X17844114Y-13214014D01*
X18115543Y-13214014D02*
X18086971Y-13199729D01*
X18072686Y-13171157D01*
X18072686Y-12914014D01*
X18344114Y-13199729D02*
X18315543Y-13214014D01*
X18258400Y-13214014D01*
X18229828Y-13199729D01*
X18215543Y-13171157D01*
X18215543Y-13056871D01*
X18229828Y-13028300D01*
X18258400Y-13014014D01*
X18315543Y-13014014D01*
X18344114Y-13028300D01*
X18358400Y-13056871D01*
X18358400Y-13085443D01*
X18215543Y-13114014D01*
X18472686Y-13199729D02*
X18501257Y-13214014D01*
X18558400Y-13214014D01*
X18586971Y-13199729D01*
X18601257Y-13171157D01*
X18601257Y-13156871D01*
X18586971Y-13128300D01*
X18558400Y-13114014D01*
X18515543Y-13114014D01*
X18486971Y-13099729D01*
X18472686Y-13071157D01*
X18472686Y-13056871D01*
X18486971Y-13028300D01*
X18515543Y-13014014D01*
X18558400Y-13014014D01*
X18586971Y-13028300D01*
X18701257Y-13328300D02*
X18715543Y-13314014D01*
X18744114Y-13271157D01*
X18758400Y-13242586D01*
X18772686Y-13199729D01*
X18786971Y-13128300D01*
X18786971Y-13071157D01*
X18772686Y-12999729D01*
X18758400Y-12956871D01*
X18744114Y-12928300D01*
X18715543Y-12885443D01*
X18701257Y-12871157D01*
X11643400Y-13474300D02*
G75*
G03*
X11643400Y-13474300I-45000J0D01*
G01*
X11986971Y-13310014D02*
X12015543Y-13310014D01*
X12044114Y-13324300D01*
X12058400Y-13338586D01*
X12072686Y-13367157D01*
X12086971Y-13424300D01*
X12086971Y-13495729D01*
X12072686Y-13552871D01*
X12058400Y-13581443D01*
X12044114Y-13595729D01*
X12015543Y-13610014D01*
X11986971Y-13610014D01*
X11958400Y-13595729D01*
X11944114Y-13581443D01*
X11929828Y-13552871D01*
X11915543Y-13495729D01*
X11915543Y-13424300D01*
X11929828Y-13367157D01*
X11944114Y-13338586D01*
X11958400Y-13324300D01*
X11986971Y-13310014D01*
X12215543Y-13581443D02*
X12229828Y-13595729D01*
X12215543Y-13610014D01*
X12201257Y-13595729D01*
X12215543Y-13581443D01*
X12215543Y-13610014D01*
X12372686Y-13610014D02*
X12429828Y-13610014D01*
X12458400Y-13595729D01*
X12472686Y-13581443D01*
X12501257Y-13538586D01*
X12515543Y-13481443D01*
X12515543Y-13367157D01*
X12501257Y-13338586D01*
X12486971Y-13324300D01*
X12458400Y-13310014D01*
X12401257Y-13310014D01*
X12372686Y-13324300D01*
X12358400Y-13338586D01*
X12344114Y-13367157D01*
X12344114Y-13438586D01*
X12358400Y-13467157D01*
X12372686Y-13481443D01*
X12401257Y-13495729D01*
X12458400Y-13495729D01*
X12486971Y-13481443D01*
X12501257Y-13467157D01*
X12515543Y-13438586D01*
X12701257Y-13310014D02*
X12729828Y-13310014D01*
X12758400Y-13324300D01*
X12772686Y-13338586D01*
X12786971Y-13367157D01*
X12801257Y-13424300D01*
X12801257Y-13495729D01*
X12786971Y-13552871D01*
X12772686Y-13581443D01*
X12758400Y-13595729D01*
X12729828Y-13610014D01*
X12701257Y-13610014D01*
X12672686Y-13595729D01*
X12658400Y-13581443D01*
X12644114Y-13552871D01*
X12629828Y-13495729D01*
X12629828Y-13424300D01*
X12644114Y-13367157D01*
X12658400Y-13338586D01*
X12672686Y-13324300D01*
X12701257Y-13310014D01*
X12929828Y-13610014D02*
X12929828Y-13410014D01*
X12929828Y-13438586D02*
X12944114Y-13424300D01*
X12972686Y-13410014D01*
X13015543Y-13410014D01*
X13044114Y-13424300D01*
X13058400Y-13452871D01*
X13058400Y-13610014D01*
X13058400Y-13452871D02*
X13072686Y-13424300D01*
X13101257Y-13410014D01*
X13144114Y-13410014D01*
X13172686Y-13424300D01*
X13186971Y-13452871D01*
X13186971Y-13610014D01*
X13329828Y-13610014D02*
X13329828Y-13410014D01*
X13329828Y-13438586D02*
X13344114Y-13424300D01*
X13372686Y-13410014D01*
X13415543Y-13410014D01*
X13444114Y-13424300D01*
X13458400Y-13452871D01*
X13458400Y-13610014D01*
X13458400Y-13452871D02*
X13472686Y-13424300D01*
X13501257Y-13410014D01*
X13544114Y-13410014D01*
X13572686Y-13424300D01*
X13586971Y-13452871D01*
X13586971Y-13610014D01*
X14172686Y-13295729D02*
X13915543Y-13681443D01*
X14558400Y-13310014D02*
X14586971Y-13310014D01*
X14615543Y-13324300D01*
X14629828Y-13338586D01*
X14644114Y-13367157D01*
X14658400Y-13424300D01*
X14658400Y-13495729D01*
X14644114Y-13552871D01*
X14629828Y-13581443D01*
X14615543Y-13595729D01*
X14586971Y-13610014D01*
X14558400Y-13610014D01*
X14529828Y-13595729D01*
X14515543Y-13581443D01*
X14501257Y-13552871D01*
X14486971Y-13495729D01*
X14486971Y-13424300D01*
X14501257Y-13367157D01*
X14515543Y-13338586D01*
X14529828Y-13324300D01*
X14558400Y-13310014D01*
X14786971Y-13581443D02*
X14801257Y-13595729D01*
X14786971Y-13610014D01*
X14772686Y-13595729D01*
X14786971Y-13581443D01*
X14786971Y-13610014D01*
X14986971Y-13310014D02*
X15015543Y-13310014D01*
X15044114Y-13324300D01*
X15058400Y-13338586D01*
X15072686Y-13367157D01*
X15086971Y-13424300D01*
X15086971Y-13495729D01*
X15072686Y-13552871D01*
X15058400Y-13581443D01*
X15044114Y-13595729D01*
X15015543Y-13610014D01*
X14986971Y-13610014D01*
X14958400Y-13595729D01*
X14944114Y-13581443D01*
X14929828Y-13552871D01*
X14915543Y-13495729D01*
X14915543Y-13424300D01*
X14929828Y-13367157D01*
X14944114Y-13338586D01*
X14958400Y-13324300D01*
X14986971Y-13310014D01*
X15186971Y-13310014D02*
X15372686Y-13310014D01*
X15272686Y-13424300D01*
X15315543Y-13424300D01*
X15344114Y-13438586D01*
X15358400Y-13452871D01*
X15372686Y-13481443D01*
X15372686Y-13552871D01*
X15358400Y-13581443D01*
X15344114Y-13595729D01*
X15315543Y-13610014D01*
X15229828Y-13610014D01*
X15201257Y-13595729D01*
X15186971Y-13581443D01*
X15644114Y-13310014D02*
X15501257Y-13310014D01*
X15486971Y-13452871D01*
X15501257Y-13438586D01*
X15529828Y-13424300D01*
X15601257Y-13424300D01*
X15629828Y-13438586D01*
X15644114Y-13452871D01*
X15658400Y-13481443D01*
X15658400Y-13552871D01*
X15644114Y-13581443D01*
X15629828Y-13595729D01*
X15601257Y-13610014D01*
X15529828Y-13610014D01*
X15501257Y-13595729D01*
X15486971Y-13581443D01*
X15772686Y-13310014D02*
X15772686Y-13367157D01*
X15886971Y-13310014D02*
X15886971Y-13367157D01*
X16329828Y-13724300D02*
X16315543Y-13710014D01*
X16286971Y-13667157D01*
X16272686Y-13638586D01*
X16258400Y-13595729D01*
X16244114Y-13524300D01*
X16244114Y-13467157D01*
X16258400Y-13395729D01*
X16272686Y-13352871D01*
X16286971Y-13324300D01*
X16315543Y-13281443D01*
X16329828Y-13267157D01*
X16429828Y-13338586D02*
X16444114Y-13324300D01*
X16472686Y-13310014D01*
X16544114Y-13310014D01*
X16572686Y-13324300D01*
X16586971Y-13338586D01*
X16601257Y-13367157D01*
X16601257Y-13395729D01*
X16586971Y-13438586D01*
X16415543Y-13610014D01*
X16601257Y-13610014D01*
X16958400Y-13610014D02*
X16958400Y-13310014D01*
X17086971Y-13610014D02*
X17086971Y-13452871D01*
X17072686Y-13424300D01*
X17044114Y-13410014D01*
X17001257Y-13410014D01*
X16972686Y-13424300D01*
X16958400Y-13438586D01*
X17272686Y-13610014D02*
X17244114Y-13595729D01*
X17229828Y-13581443D01*
X17215543Y-13552871D01*
X17215543Y-13467157D01*
X17229828Y-13438586D01*
X17244114Y-13424300D01*
X17272686Y-13410014D01*
X17315543Y-13410014D01*
X17344114Y-13424300D01*
X17358400Y-13438586D01*
X17372686Y-13467157D01*
X17372686Y-13552871D01*
X17358400Y-13581443D01*
X17344114Y-13595729D01*
X17315543Y-13610014D01*
X17272686Y-13610014D01*
X17544114Y-13610014D02*
X17515543Y-13595729D01*
X17501257Y-13567157D01*
X17501257Y-13310014D01*
X17772686Y-13595729D02*
X17744114Y-13610014D01*
X17686971Y-13610014D01*
X17658400Y-13595729D01*
X17644114Y-13567157D01*
X17644114Y-13452871D01*
X17658400Y-13424300D01*
X17686971Y-13410014D01*
X17744114Y-13410014D01*
X17772686Y-13424300D01*
X17786971Y-13452871D01*
X17786971Y-13481443D01*
X17644114Y-13510014D01*
X17901257Y-13595729D02*
X17929828Y-13610014D01*
X17986971Y-13610014D01*
X18015543Y-13595729D01*
X18029828Y-13567157D01*
X18029828Y-13552871D01*
X18015543Y-13524300D01*
X17986971Y-13510014D01*
X17944114Y-13510014D01*
X17915543Y-13495729D01*
X17901257Y-13467157D01*
X17901257Y-13452871D01*
X17915543Y-13424300D01*
X17944114Y-13410014D01*
X17986971Y-13410014D01*
X18015543Y-13424300D01*
X18129828Y-13724300D02*
X18144114Y-13710014D01*
X18172686Y-13667157D01*
X18186971Y-13638586D01*
X18201257Y-13595729D01*
X18215543Y-13524300D01*
X18215543Y-13467157D01*
X18201257Y-13395729D01*
X18186971Y-13352871D01*
X18172686Y-13324300D01*
X18144114Y-13281443D01*
X18129828Y-13267157D01*
X11593400Y-13820300D02*
X11593400Y-13920300D01*
X11543400Y-13870300D02*
X11643400Y-13870300D01*
X12086971Y-14006014D02*
X11915543Y-14006014D01*
X12001257Y-14006014D02*
X12001257Y-13706014D01*
X11972686Y-13748871D01*
X11944114Y-13777443D01*
X11915543Y-13791729D01*
X12215543Y-13977443D02*
X12229828Y-13991729D01*
X12215543Y-14006014D01*
X12201257Y-13991729D01*
X12215543Y-13977443D01*
X12215543Y-14006014D01*
X12415543Y-13706014D02*
X12444114Y-13706014D01*
X12472686Y-13720300D01*
X12486971Y-13734586D01*
X12501257Y-13763157D01*
X12515543Y-13820300D01*
X12515543Y-13891729D01*
X12501257Y-13948871D01*
X12486971Y-13977443D01*
X12472686Y-13991729D01*
X12444114Y-14006014D01*
X12415543Y-14006014D01*
X12386971Y-13991729D01*
X12372686Y-13977443D01*
X12358400Y-13948871D01*
X12344114Y-13891729D01*
X12344114Y-13820300D01*
X12358400Y-13763157D01*
X12372686Y-13734586D01*
X12386971Y-13720300D01*
X12415543Y-13706014D01*
X12701257Y-13706014D02*
X12729828Y-13706014D01*
X12758400Y-13720300D01*
X12772686Y-13734586D01*
X12786971Y-13763157D01*
X12801257Y-13820300D01*
X12801257Y-13891729D01*
X12786971Y-13948871D01*
X12772686Y-13977443D01*
X12758400Y-13991729D01*
X12729828Y-14006014D01*
X12701257Y-14006014D01*
X12672686Y-13991729D01*
X12658400Y-13977443D01*
X12644114Y-13948871D01*
X12629828Y-13891729D01*
X12629828Y-13820300D01*
X12644114Y-13763157D01*
X12658400Y-13734586D01*
X12672686Y-13720300D01*
X12701257Y-13706014D01*
X12929828Y-14006014D02*
X12929828Y-13806014D01*
X12929828Y-13834586D02*
X12944114Y-13820300D01*
X12972686Y-13806014D01*
X13015543Y-13806014D01*
X13044114Y-13820300D01*
X13058400Y-13848871D01*
X13058400Y-14006014D01*
X13058400Y-13848871D02*
X13072686Y-13820300D01*
X13101257Y-13806014D01*
X13144114Y-13806014D01*
X13172686Y-13820300D01*
X13186971Y-13848871D01*
X13186971Y-14006014D01*
X13329828Y-14006014D02*
X13329828Y-13806014D01*
X13329828Y-13834586D02*
X13344114Y-13820300D01*
X13372686Y-13806014D01*
X13415543Y-13806014D01*
X13444114Y-13820300D01*
X13458400Y-13848871D01*
X13458400Y-14006014D01*
X13458400Y-13848871D02*
X13472686Y-13820300D01*
X13501257Y-13806014D01*
X13544114Y-13806014D01*
X13572686Y-13820300D01*
X13586971Y-13848871D01*
X13586971Y-14006014D01*
X14172686Y-13691729D02*
X13915543Y-14077443D01*
X14558400Y-13706014D02*
X14586971Y-13706014D01*
X14615543Y-13720300D01*
X14629828Y-13734586D01*
X14644114Y-13763157D01*
X14658400Y-13820300D01*
X14658400Y-13891729D01*
X14644114Y-13948871D01*
X14629828Y-13977443D01*
X14615543Y-13991729D01*
X14586971Y-14006014D01*
X14558400Y-14006014D01*
X14529828Y-13991729D01*
X14515543Y-13977443D01*
X14501257Y-13948871D01*
X14486971Y-13891729D01*
X14486971Y-13820300D01*
X14501257Y-13763157D01*
X14515543Y-13734586D01*
X14529828Y-13720300D01*
X14558400Y-13706014D01*
X14786971Y-13977443D02*
X14801257Y-13991729D01*
X14786971Y-14006014D01*
X14772686Y-13991729D01*
X14786971Y-13977443D01*
X14786971Y-14006014D01*
X14986971Y-13706014D02*
X15015543Y-13706014D01*
X15044114Y-13720300D01*
X15058400Y-13734586D01*
X15072686Y-13763157D01*
X15086971Y-13820300D01*
X15086971Y-13891729D01*
X15072686Y-13948871D01*
X15058400Y-13977443D01*
X15044114Y-13991729D01*
X15015543Y-14006014D01*
X14986971Y-14006014D01*
X14958400Y-13991729D01*
X14944114Y-13977443D01*
X14929828Y-13948871D01*
X14915543Y-13891729D01*
X14915543Y-13820300D01*
X14929828Y-13763157D01*
X14944114Y-13734586D01*
X14958400Y-13720300D01*
X14986971Y-13706014D01*
X15186971Y-13706014D02*
X15372686Y-13706014D01*
X15272686Y-13820300D01*
X15315543Y-13820300D01*
X15344114Y-13834586D01*
X15358400Y-13848871D01*
X15372686Y-13877443D01*
X15372686Y-13948871D01*
X15358400Y-13977443D01*
X15344114Y-13991729D01*
X15315543Y-14006014D01*
X15229828Y-14006014D01*
X15201257Y-13991729D01*
X15186971Y-13977443D01*
X15515543Y-14006014D02*
X15572686Y-14006014D01*
X15601257Y-13991729D01*
X15615543Y-13977443D01*
X15644114Y-13934586D01*
X15658400Y-13877443D01*
X15658400Y-13763157D01*
X15644114Y-13734586D01*
X15629828Y-13720300D01*
X15601257Y-13706014D01*
X15544114Y-13706014D01*
X15515543Y-13720300D01*
X15501257Y-13734586D01*
X15486971Y-13763157D01*
X15486971Y-13834586D01*
X15501257Y-13863157D01*
X15515543Y-13877443D01*
X15544114Y-13891729D01*
X15601257Y-13891729D01*
X15629828Y-13877443D01*
X15644114Y-13863157D01*
X15658400Y-13834586D01*
X15772686Y-13706014D02*
X15772686Y-13763157D01*
X15886971Y-13706014D02*
X15886971Y-13763157D01*
X16329828Y-14120300D02*
X16315543Y-14106014D01*
X16286971Y-14063157D01*
X16272686Y-14034586D01*
X16258400Y-13991729D01*
X16244114Y-13920300D01*
X16244114Y-13863157D01*
X16258400Y-13791729D01*
X16272686Y-13748871D01*
X16286971Y-13720300D01*
X16315543Y-13677443D01*
X16329828Y-13663157D01*
X16572686Y-13806014D02*
X16572686Y-14006014D01*
X16501257Y-13691729D02*
X16429828Y-13906014D01*
X16615543Y-13906014D01*
X16958400Y-14006014D02*
X16958400Y-13706014D01*
X17086971Y-14006014D02*
X17086971Y-13848871D01*
X17072686Y-13820300D01*
X17044114Y-13806014D01*
X17001257Y-13806014D01*
X16972686Y-13820300D01*
X16958400Y-13834586D01*
X17272686Y-14006014D02*
X17244114Y-13991729D01*
X17229828Y-13977443D01*
X17215543Y-13948871D01*
X17215543Y-13863157D01*
X17229828Y-13834586D01*
X17244114Y-13820300D01*
X17272686Y-13806014D01*
X17315543Y-13806014D01*
X17344114Y-13820300D01*
X17358400Y-13834586D01*
X17372686Y-13863157D01*
X17372686Y-13948871D01*
X17358400Y-13977443D01*
X17344114Y-13991729D01*
X17315543Y-14006014D01*
X17272686Y-14006014D01*
X17544114Y-14006014D02*
X17515543Y-13991729D01*
X17501257Y-13963157D01*
X17501257Y-13706014D01*
X17772686Y-13991729D02*
X17744114Y-14006014D01*
X17686971Y-14006014D01*
X17658400Y-13991729D01*
X17644114Y-13963157D01*
X17644114Y-13848871D01*
X17658400Y-13820300D01*
X17686971Y-13806014D01*
X17744114Y-13806014D01*
X17772686Y-13820300D01*
X17786971Y-13848871D01*
X17786971Y-13877443D01*
X17644114Y-13906014D01*
X17901257Y-13991729D02*
X17929828Y-14006014D01*
X17986971Y-14006014D01*
X18015543Y-13991729D01*
X18029828Y-13963157D01*
X18029828Y-13948871D01*
X18015543Y-13920300D01*
X17986971Y-13906014D01*
X17944114Y-13906014D01*
X17915543Y-13891729D01*
X17901257Y-13863157D01*
X17901257Y-13848871D01*
X17915543Y-13820300D01*
X17944114Y-13806014D01*
X17986971Y-13806014D01*
X18015543Y-13820300D01*
X18129828Y-14120300D02*
X18144114Y-14106014D01*
X18172686Y-14063157D01*
X18186971Y-14034586D01*
X18201257Y-13991729D01*
X18215543Y-13920300D01*
X18215543Y-13863157D01*
X18201257Y-13791729D01*
X18186971Y-13748871D01*
X18172686Y-13720300D01*
X18144114Y-13677443D01*
X18129828Y-13663157D01*
M02*
