G04 #@! TF.GenerationSoftware,KiCad,Pcbnew,(5.1.7)-1*
G04 #@! TF.CreationDate,2021-07-20T15:03:30-04:00*
G04 #@! TF.ProjectId,12-5_Volt_Regulator,31322d35-5f56-46f6-9c74-5f526567756c,rev?*
G04 #@! TF.SameCoordinates,Original*
G04 #@! TF.FileFunction,Soldermask,Top*
G04 #@! TF.FilePolarity,Negative*
%FSLAX46Y46*%
G04 Gerber Fmt 4.6, Leading zero omitted, Abs format (unit mm)*
G04 Created by KiCad (PCBNEW (5.1.7)-1) date 2021-07-20 15:03:30*
%MOMM*%
%LPD*%
G01*
G04 APERTURE LIST*
%ADD10C,3.300000*%
%ADD11O,1.800000X1.800000*%
%ADD12C,1.900000*%
G04 APERTURE END LIST*
G36*
G01*
X118409000Y-114473000D02*
X118409000Y-110473000D01*
G75*
G02*
X118459000Y-110423000I50000J0D01*
G01*
X122459000Y-110423000D01*
G75*
G02*
X122509000Y-110473000I0J-50000D01*
G01*
X122509000Y-114473000D01*
G75*
G02*
X122459000Y-114523000I-50000J0D01*
G01*
X118459000Y-114523000D01*
G75*
G02*
X118409000Y-114473000I0J50000D01*
G01*
G37*
G36*
G01*
X118409000Y-107933000D02*
X118409000Y-103933000D01*
G75*
G02*
X118459000Y-103883000I50000J0D01*
G01*
X122459000Y-103883000D01*
G75*
G02*
X122509000Y-103933000I0J-50000D01*
G01*
X122509000Y-107933000D01*
G75*
G02*
X122459000Y-107983000I-50000J0D01*
G01*
X118459000Y-107983000D01*
G75*
G02*
X118409000Y-107933000I0J50000D01*
G01*
G37*
G36*
G01*
X118409000Y-100948000D02*
X118409000Y-96948000D01*
G75*
G02*
X118459000Y-96898000I50000J0D01*
G01*
X122459000Y-96898000D01*
G75*
G02*
X122509000Y-96948000I0J-50000D01*
G01*
X122509000Y-100948000D01*
G75*
G02*
X122459000Y-100998000I-50000J0D01*
G01*
X118459000Y-100998000D01*
G75*
G02*
X118409000Y-100948000I0J50000D01*
G01*
G37*
G36*
G01*
X118409000Y-94408000D02*
X118409000Y-90408000D01*
G75*
G02*
X118459000Y-90358000I50000J0D01*
G01*
X122459000Y-90358000D01*
G75*
G02*
X122509000Y-90408000I0J-50000D01*
G01*
X122509000Y-94408000D01*
G75*
G02*
X122459000Y-94458000I-50000J0D01*
G01*
X118459000Y-94458000D01*
G75*
G02*
X118409000Y-94408000I0J50000D01*
G01*
G37*
D10*
X157353000Y-92964000D03*
X120015000Y-117348000D03*
G36*
G01*
X119559000Y-108783000D02*
X119559000Y-107083000D01*
G75*
G02*
X119609000Y-107033000I50000J0D01*
G01*
X121309000Y-107033000D01*
G75*
G02*
X121359000Y-107083000I0J-50000D01*
G01*
X121359000Y-108783000D01*
G75*
G02*
X121309000Y-108833000I-50000J0D01*
G01*
X119609000Y-108833000D01*
G75*
G02*
X119559000Y-108783000I0J50000D01*
G01*
G37*
D11*
X120459000Y-110473000D03*
G36*
G01*
X152681250Y-102138500D02*
X152118750Y-102138500D01*
G75*
G02*
X151875000Y-101894750I0J243750D01*
G01*
X151875000Y-101407250D01*
G75*
G02*
X152118750Y-101163500I243750J0D01*
G01*
X152681250Y-101163500D01*
G75*
G02*
X152925000Y-101407250I0J-243750D01*
G01*
X152925000Y-101894750D01*
G75*
G02*
X152681250Y-102138500I-243750J0D01*
G01*
G37*
G36*
G01*
X152681250Y-100563500D02*
X152118750Y-100563500D01*
G75*
G02*
X151875000Y-100319750I0J243750D01*
G01*
X151875000Y-99832250D01*
G75*
G02*
X152118750Y-99588500I243750J0D01*
G01*
X152681250Y-99588500D01*
G75*
G02*
X152925000Y-99832250I0J-243750D01*
G01*
X152925000Y-100319750D01*
G75*
G02*
X152681250Y-100563500I-243750J0D01*
G01*
G37*
G36*
G01*
X126468000Y-89952000D02*
X128548000Y-89952000D01*
G75*
G02*
X128808000Y-90212000I0J-260000D01*
G01*
X128808000Y-94192000D01*
G75*
G02*
X128548000Y-94452000I-260000J0D01*
G01*
X126468000Y-94452000D01*
G75*
G02*
X126208000Y-94192000I0J260000D01*
G01*
X126208000Y-90212000D01*
G75*
G02*
X126468000Y-89952000I260000J0D01*
G01*
G37*
G36*
G01*
X126468000Y-97352000D02*
X128548000Y-97352000D01*
G75*
G02*
X128808000Y-97612000I0J-260000D01*
G01*
X128808000Y-101592000D01*
G75*
G02*
X128548000Y-101852000I-260000J0D01*
G01*
X126468000Y-101852000D01*
G75*
G02*
X126208000Y-101592000I0J260000D01*
G01*
X126208000Y-97612000D01*
G75*
G02*
X126468000Y-97352000I260000J0D01*
G01*
G37*
G36*
G01*
X133203000Y-93813000D02*
X134513000Y-93813000D01*
G75*
G02*
X134783000Y-94083000I0J-270000D01*
G01*
X134783000Y-94893000D01*
G75*
G02*
X134513000Y-95163000I-270000J0D01*
G01*
X133203000Y-95163000D01*
G75*
G02*
X132933000Y-94893000I0J270000D01*
G01*
X132933000Y-94083000D01*
G75*
G02*
X133203000Y-93813000I270000J0D01*
G01*
G37*
G36*
G01*
X133203000Y-96613000D02*
X134513000Y-96613000D01*
G75*
G02*
X134783000Y-96883000I0J-270000D01*
G01*
X134783000Y-97693000D01*
G75*
G02*
X134513000Y-97963000I-270000J0D01*
G01*
X133203000Y-97963000D01*
G75*
G02*
X132933000Y-97693000I0J270000D01*
G01*
X132933000Y-96883000D01*
G75*
G02*
X133203000Y-96613000I270000J0D01*
G01*
G37*
G36*
G01*
X135743000Y-96613000D02*
X137053000Y-96613000D01*
G75*
G02*
X137323000Y-96883000I0J-270000D01*
G01*
X137323000Y-97693000D01*
G75*
G02*
X137053000Y-97963000I-270000J0D01*
G01*
X135743000Y-97963000D01*
G75*
G02*
X135473000Y-97693000I0J270000D01*
G01*
X135473000Y-96883000D01*
G75*
G02*
X135743000Y-96613000I270000J0D01*
G01*
G37*
G36*
G01*
X135743000Y-93813000D02*
X137053000Y-93813000D01*
G75*
G02*
X137323000Y-94083000I0J-270000D01*
G01*
X137323000Y-94893000D01*
G75*
G02*
X137053000Y-95163000I-270000J0D01*
G01*
X135743000Y-95163000D01*
G75*
G02*
X135473000Y-94893000I0J270000D01*
G01*
X135473000Y-94083000D01*
G75*
G02*
X135743000Y-93813000I270000J0D01*
G01*
G37*
G36*
G01*
X138283000Y-93807000D02*
X139593000Y-93807000D01*
G75*
G02*
X139863000Y-94077000I0J-270000D01*
G01*
X139863000Y-94887000D01*
G75*
G02*
X139593000Y-95157000I-270000J0D01*
G01*
X138283000Y-95157000D01*
G75*
G02*
X138013000Y-94887000I0J270000D01*
G01*
X138013000Y-94077000D01*
G75*
G02*
X138283000Y-93807000I270000J0D01*
G01*
G37*
G36*
G01*
X138283000Y-96607000D02*
X139593000Y-96607000D01*
G75*
G02*
X139863000Y-96877000I0J-270000D01*
G01*
X139863000Y-97687000D01*
G75*
G02*
X139593000Y-97957000I-270000J0D01*
G01*
X138283000Y-97957000D01*
G75*
G02*
X138013000Y-97687000I0J270000D01*
G01*
X138013000Y-96877000D01*
G75*
G02*
X138283000Y-96607000I270000J0D01*
G01*
G37*
G36*
G01*
X140823000Y-96613000D02*
X142133000Y-96613000D01*
G75*
G02*
X142403000Y-96883000I0J-270000D01*
G01*
X142403000Y-97693000D01*
G75*
G02*
X142133000Y-97963000I-270000J0D01*
G01*
X140823000Y-97963000D01*
G75*
G02*
X140553000Y-97693000I0J270000D01*
G01*
X140553000Y-96883000D01*
G75*
G02*
X140823000Y-96613000I270000J0D01*
G01*
G37*
G36*
G01*
X140823000Y-93813000D02*
X142133000Y-93813000D01*
G75*
G02*
X142403000Y-94083000I0J-270000D01*
G01*
X142403000Y-94893000D01*
G75*
G02*
X142133000Y-95163000I-270000J0D01*
G01*
X140823000Y-95163000D01*
G75*
G02*
X140553000Y-94893000I0J270000D01*
G01*
X140553000Y-94083000D01*
G75*
G02*
X140823000Y-93813000I270000J0D01*
G01*
G37*
G36*
G01*
X143155750Y-97633500D02*
X144118250Y-97633500D01*
G75*
G02*
X144387000Y-97902250I0J-268750D01*
G01*
X144387000Y-98439750D01*
G75*
G02*
X144118250Y-98708500I-268750J0D01*
G01*
X143155750Y-98708500D01*
G75*
G02*
X142887000Y-98439750I0J268750D01*
G01*
X142887000Y-97902250D01*
G75*
G02*
X143155750Y-97633500I268750J0D01*
G01*
G37*
G36*
G01*
X143155750Y-95758500D02*
X144118250Y-95758500D01*
G75*
G02*
X144387000Y-96027250I0J-268750D01*
G01*
X144387000Y-96564750D01*
G75*
G02*
X144118250Y-96833500I-268750J0D01*
G01*
X143155750Y-96833500D01*
G75*
G02*
X142887000Y-96564750I0J268750D01*
G01*
X142887000Y-96027250D01*
G75*
G02*
X143155750Y-95758500I268750J0D01*
G01*
G37*
G36*
G01*
X144499250Y-111535500D02*
X143536750Y-111535500D01*
G75*
G02*
X143268000Y-111266750I0J268750D01*
G01*
X143268000Y-110729250D01*
G75*
G02*
X143536750Y-110460500I268750J0D01*
G01*
X144499250Y-110460500D01*
G75*
G02*
X144768000Y-110729250I0J-268750D01*
G01*
X144768000Y-111266750D01*
G75*
G02*
X144499250Y-111535500I-268750J0D01*
G01*
G37*
G36*
G01*
X144499250Y-109660500D02*
X143536750Y-109660500D01*
G75*
G02*
X143268000Y-109391750I0J268750D01*
G01*
X143268000Y-108854250D01*
G75*
G02*
X143536750Y-108585500I268750J0D01*
G01*
X144499250Y-108585500D01*
G75*
G02*
X144768000Y-108854250I0J-268750D01*
G01*
X144768000Y-109391750D01*
G75*
G02*
X144499250Y-109660500I-268750J0D01*
G01*
G37*
G36*
G01*
X142387000Y-109387000D02*
X141077000Y-109387000D01*
G75*
G02*
X140807000Y-109117000I0J270000D01*
G01*
X140807000Y-108307000D01*
G75*
G02*
X141077000Y-108037000I270000J0D01*
G01*
X142387000Y-108037000D01*
G75*
G02*
X142657000Y-108307000I0J-270000D01*
G01*
X142657000Y-109117000D01*
G75*
G02*
X142387000Y-109387000I-270000J0D01*
G01*
G37*
G36*
G01*
X142387000Y-112187000D02*
X141077000Y-112187000D01*
G75*
G02*
X140807000Y-111917000I0J270000D01*
G01*
X140807000Y-111107000D01*
G75*
G02*
X141077000Y-110837000I270000J0D01*
G01*
X142387000Y-110837000D01*
G75*
G02*
X142657000Y-111107000I0J-270000D01*
G01*
X142657000Y-111917000D01*
G75*
G02*
X142387000Y-112187000I-270000J0D01*
G01*
G37*
G36*
G01*
X139847000Y-112187000D02*
X138537000Y-112187000D01*
G75*
G02*
X138267000Y-111917000I0J270000D01*
G01*
X138267000Y-111107000D01*
G75*
G02*
X138537000Y-110837000I270000J0D01*
G01*
X139847000Y-110837000D01*
G75*
G02*
X140117000Y-111107000I0J-270000D01*
G01*
X140117000Y-111917000D01*
G75*
G02*
X139847000Y-112187000I-270000J0D01*
G01*
G37*
G36*
G01*
X139847000Y-109387000D02*
X138537000Y-109387000D01*
G75*
G02*
X138267000Y-109117000I0J270000D01*
G01*
X138267000Y-108307000D01*
G75*
G02*
X138537000Y-108037000I270000J0D01*
G01*
X139847000Y-108037000D01*
G75*
G02*
X140117000Y-108307000I0J-270000D01*
G01*
X140117000Y-109117000D01*
G75*
G02*
X139847000Y-109387000I-270000J0D01*
G01*
G37*
G36*
G01*
X137307000Y-109387000D02*
X135997000Y-109387000D01*
G75*
G02*
X135727000Y-109117000I0J270000D01*
G01*
X135727000Y-108307000D01*
G75*
G02*
X135997000Y-108037000I270000J0D01*
G01*
X137307000Y-108037000D01*
G75*
G02*
X137577000Y-108307000I0J-270000D01*
G01*
X137577000Y-109117000D01*
G75*
G02*
X137307000Y-109387000I-270000J0D01*
G01*
G37*
G36*
G01*
X137307000Y-112187000D02*
X135997000Y-112187000D01*
G75*
G02*
X135727000Y-111917000I0J270000D01*
G01*
X135727000Y-111107000D01*
G75*
G02*
X135997000Y-110837000I270000J0D01*
G01*
X137307000Y-110837000D01*
G75*
G02*
X137577000Y-111107000I0J-270000D01*
G01*
X137577000Y-111917000D01*
G75*
G02*
X137307000Y-112187000I-270000J0D01*
G01*
G37*
G36*
G01*
X134767000Y-112187000D02*
X133457000Y-112187000D01*
G75*
G02*
X133187000Y-111917000I0J270000D01*
G01*
X133187000Y-111107000D01*
G75*
G02*
X133457000Y-110837000I270000J0D01*
G01*
X134767000Y-110837000D01*
G75*
G02*
X135037000Y-111107000I0J-270000D01*
G01*
X135037000Y-111917000D01*
G75*
G02*
X134767000Y-112187000I-270000J0D01*
G01*
G37*
G36*
G01*
X134767000Y-109387000D02*
X133457000Y-109387000D01*
G75*
G02*
X133187000Y-109117000I0J270000D01*
G01*
X133187000Y-108307000D01*
G75*
G02*
X133457000Y-108037000I270000J0D01*
G01*
X134767000Y-108037000D01*
G75*
G02*
X135037000Y-108307000I0J-270000D01*
G01*
X135037000Y-109117000D01*
G75*
G02*
X134767000Y-109387000I-270000J0D01*
G01*
G37*
G36*
G01*
X128548000Y-108930000D02*
X126468000Y-108930000D01*
G75*
G02*
X126208000Y-108670000I0J260000D01*
G01*
X126208000Y-104690000D01*
G75*
G02*
X126468000Y-104430000I260000J0D01*
G01*
X128548000Y-104430000D01*
G75*
G02*
X128808000Y-104690000I0J-260000D01*
G01*
X128808000Y-108670000D01*
G75*
G02*
X128548000Y-108930000I-260000J0D01*
G01*
G37*
G36*
G01*
X128548000Y-116330000D02*
X126468000Y-116330000D01*
G75*
G02*
X126208000Y-116070000I0J260000D01*
G01*
X126208000Y-112090000D01*
G75*
G02*
X126468000Y-111830000I260000J0D01*
G01*
X128548000Y-111830000D01*
G75*
G02*
X128808000Y-112090000I0J-260000D01*
G01*
X128808000Y-116070000D01*
G75*
G02*
X128548000Y-116330000I-260000J0D01*
G01*
G37*
G36*
G01*
X145152000Y-101424000D02*
X147652000Y-101424000D01*
G75*
G02*
X147702000Y-101474000I0J-50000D01*
G01*
X147702000Y-104774000D01*
G75*
G02*
X147652000Y-104824000I-50000J0D01*
G01*
X145152000Y-104824000D01*
G75*
G02*
X145102000Y-104774000I0J50000D01*
G01*
X145102000Y-101474000D01*
G75*
G02*
X145152000Y-101424000I50000J0D01*
G01*
G37*
G36*
G01*
X138352000Y-101424000D02*
X140852000Y-101424000D01*
G75*
G02*
X140902000Y-101474000I0J-50000D01*
G01*
X140902000Y-104774000D01*
G75*
G02*
X140852000Y-104824000I-50000J0D01*
G01*
X138352000Y-104824000D01*
G75*
G02*
X138302000Y-104774000I0J50000D01*
G01*
X138302000Y-101474000D01*
G75*
G02*
X138352000Y-101424000I50000J0D01*
G01*
G37*
G36*
G01*
X133847000Y-100650000D02*
X135647000Y-100650000D01*
G75*
G02*
X135697000Y-100700000I0J-50000D01*
G01*
X135697000Y-102500000D01*
G75*
G02*
X135647000Y-102550000I-50000J0D01*
G01*
X133847000Y-102550000D01*
G75*
G02*
X133797000Y-102500000I0J50000D01*
G01*
X133797000Y-100700000D01*
G75*
G02*
X133847000Y-100650000I50000J0D01*
G01*
G37*
D12*
X134747000Y-104140000D03*
D11*
X120459000Y-94408000D03*
G36*
G01*
X121359000Y-96098000D02*
X121359000Y-97798000D01*
G75*
G02*
X121309000Y-97848000I-50000J0D01*
G01*
X119609000Y-97848000D01*
G75*
G02*
X119559000Y-97798000I0J50000D01*
G01*
X119559000Y-96098000D01*
G75*
G02*
X119609000Y-96048000I50000J0D01*
G01*
X121309000Y-96048000D01*
G75*
G02*
X121359000Y-96098000I0J-50000D01*
G01*
G37*
G36*
G01*
X147729000Y-106944000D02*
X151229000Y-106944000D01*
G75*
G02*
X151279000Y-106994000I0J-50000D01*
G01*
X151279000Y-109944000D01*
G75*
G02*
X151229000Y-109994000I-50000J0D01*
G01*
X147729000Y-109994000D01*
G75*
G02*
X147679000Y-109944000I0J50000D01*
G01*
X147679000Y-106994000D01*
G75*
G02*
X147729000Y-106944000I50000J0D01*
G01*
G37*
G36*
G01*
X147729000Y-112394000D02*
X151229000Y-112394000D01*
G75*
G02*
X151279000Y-112444000I0J-50000D01*
G01*
X151279000Y-115394000D01*
G75*
G02*
X151229000Y-115444000I-50000J0D01*
G01*
X147729000Y-115444000D01*
G75*
G02*
X147679000Y-115394000I0J50000D01*
G01*
X147679000Y-112444000D01*
G75*
G02*
X147729000Y-112394000I50000J0D01*
G01*
G37*
G36*
G01*
X146655500Y-92937250D02*
X146655500Y-91974750D01*
G75*
G02*
X146924250Y-91706000I268750J0D01*
G01*
X147461750Y-91706000D01*
G75*
G02*
X147730500Y-91974750I0J-268750D01*
G01*
X147730500Y-92937250D01*
G75*
G02*
X147461750Y-93206000I-268750J0D01*
G01*
X146924250Y-93206000D01*
G75*
G02*
X146655500Y-92937250I0J268750D01*
G01*
G37*
G36*
G01*
X144780500Y-92937250D02*
X144780500Y-91974750D01*
G75*
G02*
X145049250Y-91706000I268750J0D01*
G01*
X145586750Y-91706000D01*
G75*
G02*
X145855500Y-91974750I0J-268750D01*
G01*
X145855500Y-92937250D01*
G75*
G02*
X145586750Y-93206000I-268750J0D01*
G01*
X145049250Y-93206000D01*
G75*
G02*
X144780500Y-92937250I0J268750D01*
G01*
G37*
G36*
G01*
X130836750Y-101727500D02*
X131799250Y-101727500D01*
G75*
G02*
X132068000Y-101996250I0J-268750D01*
G01*
X132068000Y-102533750D01*
G75*
G02*
X131799250Y-102802500I-268750J0D01*
G01*
X130836750Y-102802500D01*
G75*
G02*
X130568000Y-102533750I0J268750D01*
G01*
X130568000Y-101996250D01*
G75*
G02*
X130836750Y-101727500I268750J0D01*
G01*
G37*
G36*
G01*
X130836750Y-103602500D02*
X131799250Y-103602500D01*
G75*
G02*
X132068000Y-103871250I0J-268750D01*
G01*
X132068000Y-104408750D01*
G75*
G02*
X131799250Y-104677500I-268750J0D01*
G01*
X130836750Y-104677500D01*
G75*
G02*
X130568000Y-104408750I0J268750D01*
G01*
X130568000Y-103871250D01*
G75*
G02*
X130836750Y-103602500I268750J0D01*
G01*
G37*
G36*
G01*
X153645000Y-97993000D02*
X153645000Y-98603000D01*
G75*
G02*
X153595000Y-98653000I-50000J0D01*
G01*
X151685000Y-98653000D01*
G75*
G02*
X151635000Y-98603000I0J50000D01*
G01*
X151635000Y-97993000D01*
G75*
G02*
X151685000Y-97943000I50000J0D01*
G01*
X153595000Y-97943000D01*
G75*
G02*
X153645000Y-97993000I0J-50000D01*
G01*
G37*
G36*
G01*
X153645000Y-96723000D02*
X153645000Y-97333000D01*
G75*
G02*
X153595000Y-97383000I-50000J0D01*
G01*
X151685000Y-97383000D01*
G75*
G02*
X151635000Y-97333000I0J50000D01*
G01*
X151635000Y-96723000D01*
G75*
G02*
X151685000Y-96673000I50000J0D01*
G01*
X153595000Y-96673000D01*
G75*
G02*
X153645000Y-96723000I0J-50000D01*
G01*
G37*
G36*
G01*
X153645000Y-95453000D02*
X153645000Y-96063000D01*
G75*
G02*
X153595000Y-96113000I-50000J0D01*
G01*
X151685000Y-96113000D01*
G75*
G02*
X151635000Y-96063000I0J50000D01*
G01*
X151635000Y-95453000D01*
G75*
G02*
X151685000Y-95403000I50000J0D01*
G01*
X153595000Y-95403000D01*
G75*
G02*
X153645000Y-95453000I0J-50000D01*
G01*
G37*
G36*
G01*
X153645000Y-94183000D02*
X153645000Y-94793000D01*
G75*
G02*
X153595000Y-94843000I-50000J0D01*
G01*
X151685000Y-94843000D01*
G75*
G02*
X151635000Y-94793000I0J50000D01*
G01*
X151635000Y-94183000D01*
G75*
G02*
X151685000Y-94133000I50000J0D01*
G01*
X153595000Y-94133000D01*
G75*
G02*
X153645000Y-94183000I0J-50000D01*
G01*
G37*
G36*
G01*
X148085000Y-94183000D02*
X148085000Y-94793000D01*
G75*
G02*
X148035000Y-94843000I-50000J0D01*
G01*
X146125000Y-94843000D01*
G75*
G02*
X146075000Y-94793000I0J50000D01*
G01*
X146075000Y-94183000D01*
G75*
G02*
X146125000Y-94133000I50000J0D01*
G01*
X148035000Y-94133000D01*
G75*
G02*
X148085000Y-94183000I0J-50000D01*
G01*
G37*
G36*
G01*
X148085000Y-95453000D02*
X148085000Y-96063000D01*
G75*
G02*
X148035000Y-96113000I-50000J0D01*
G01*
X146125000Y-96113000D01*
G75*
G02*
X146075000Y-96063000I0J50000D01*
G01*
X146075000Y-95453000D01*
G75*
G02*
X146125000Y-95403000I50000J0D01*
G01*
X148035000Y-95403000D01*
G75*
G02*
X148085000Y-95453000I0J-50000D01*
G01*
G37*
G36*
G01*
X148085000Y-96723000D02*
X148085000Y-97333000D01*
G75*
G02*
X148035000Y-97383000I-50000J0D01*
G01*
X146125000Y-97383000D01*
G75*
G02*
X146075000Y-97333000I0J50000D01*
G01*
X146075000Y-96723000D01*
G75*
G02*
X146125000Y-96673000I50000J0D01*
G01*
X148035000Y-96673000D01*
G75*
G02*
X148085000Y-96723000I0J-50000D01*
G01*
G37*
G36*
G01*
X148085000Y-97993000D02*
X148085000Y-98603000D01*
G75*
G02*
X148035000Y-98653000I-50000J0D01*
G01*
X146125000Y-98653000D01*
G75*
G02*
X146075000Y-98603000I0J50000D01*
G01*
X146075000Y-97993000D01*
G75*
G02*
X146125000Y-97943000I50000J0D01*
G01*
X148035000Y-97943000D01*
G75*
G02*
X148085000Y-97993000I0J-50000D01*
G01*
G37*
G36*
G01*
X149910000Y-94842999D02*
X149910000Y-96393001D01*
G75*
G02*
X149860001Y-96443000I-49999J0D01*
G01*
X148654999Y-96443000D01*
G75*
G02*
X148605000Y-96393001I0J49999D01*
G01*
X148605000Y-94842999D01*
G75*
G02*
X148654999Y-94793000I49999J0D01*
G01*
X149860001Y-94793000D01*
G75*
G02*
X149910000Y-94842999I0J-49999D01*
G01*
G37*
G36*
G01*
X149910000Y-96392999D02*
X149910000Y-97943001D01*
G75*
G02*
X149860001Y-97993000I-49999J0D01*
G01*
X148654999Y-97993000D01*
G75*
G02*
X148605000Y-97943001I0J49999D01*
G01*
X148605000Y-96392999D01*
G75*
G02*
X148654999Y-96343000I49999J0D01*
G01*
X149860001Y-96343000D01*
G75*
G02*
X149910000Y-96392999I0J-49999D01*
G01*
G37*
G36*
G01*
X151115000Y-94842999D02*
X151115000Y-96393001D01*
G75*
G02*
X151065001Y-96443000I-49999J0D01*
G01*
X149859999Y-96443000D01*
G75*
G02*
X149810000Y-96393001I0J49999D01*
G01*
X149810000Y-94842999D01*
G75*
G02*
X149859999Y-94793000I49999J0D01*
G01*
X151065001Y-94793000D01*
G75*
G02*
X151115000Y-94842999I0J-49999D01*
G01*
G37*
G36*
G01*
X151115000Y-96392999D02*
X151115000Y-97943001D01*
G75*
G02*
X151065001Y-97993000I-49999J0D01*
G01*
X149859999Y-97993000D01*
G75*
G02*
X149810000Y-97943001I0J49999D01*
G01*
X149810000Y-96392999D01*
G75*
G02*
X149859999Y-96343000I49999J0D01*
G01*
X151065001Y-96343000D01*
G75*
G02*
X151115000Y-96392999I0J-49999D01*
G01*
G37*
M02*
