G04 #@! TF.GenerationSoftware,KiCad,Pcbnew,(5.1.7)-1*
G04 #@! TF.CreationDate,2021-07-20T15:03:30-04:00*
G04 #@! TF.ProjectId,12-5_Volt_Regulator,31322d35-5f56-46f6-9c74-5f526567756c,rev?*
G04 #@! TF.SameCoordinates,Original*
G04 #@! TF.FileFunction,Paste,Top*
G04 #@! TF.FilePolarity,Positive*
%FSLAX46Y46*%
G04 Gerber Fmt 4.6, Leading zero omitted, Abs format (unit mm)*
G04 Created by KiCad (PCBNEW (5.1.7)-1) date 2021-07-20 15:03:30*
%MOMM*%
%LPD*%
G01*
G04 APERTURE LIST*
%ADD10R,2.500000X3.300000*%
%ADD11R,3.500000X2.950000*%
%ADD12R,1.910000X0.610000*%
%ADD13R,0.723000X0.930000*%
G04 APERTURE END LIST*
G36*
G01*
X152656250Y-102088500D02*
X152143750Y-102088500D01*
G75*
G02*
X151925000Y-101869750I0J218750D01*
G01*
X151925000Y-101432250D01*
G75*
G02*
X152143750Y-101213500I218750J0D01*
G01*
X152656250Y-101213500D01*
G75*
G02*
X152875000Y-101432250I0J-218750D01*
G01*
X152875000Y-101869750D01*
G75*
G02*
X152656250Y-102088500I-218750J0D01*
G01*
G37*
G36*
G01*
X152656250Y-100513500D02*
X152143750Y-100513500D01*
G75*
G02*
X151925000Y-100294750I0J218750D01*
G01*
X151925000Y-99857250D01*
G75*
G02*
X152143750Y-99638500I218750J0D01*
G01*
X152656250Y-99638500D01*
G75*
G02*
X152875000Y-99857250I0J-218750D01*
G01*
X152875000Y-100294750D01*
G75*
G02*
X152656250Y-100513500I-218750J0D01*
G01*
G37*
G36*
G01*
X126508000Y-90002000D02*
X128508000Y-90002000D01*
G75*
G02*
X128758000Y-90252000I0J-250000D01*
G01*
X128758000Y-94152000D01*
G75*
G02*
X128508000Y-94402000I-250000J0D01*
G01*
X126508000Y-94402000D01*
G75*
G02*
X126258000Y-94152000I0J250000D01*
G01*
X126258000Y-90252000D01*
G75*
G02*
X126508000Y-90002000I250000J0D01*
G01*
G37*
G36*
G01*
X126508000Y-97402000D02*
X128508000Y-97402000D01*
G75*
G02*
X128758000Y-97652000I0J-250000D01*
G01*
X128758000Y-101552000D01*
G75*
G02*
X128508000Y-101802000I-250000J0D01*
G01*
X126508000Y-101802000D01*
G75*
G02*
X126258000Y-101552000I0J250000D01*
G01*
X126258000Y-97652000D01*
G75*
G02*
X126508000Y-97402000I250000J0D01*
G01*
G37*
G36*
G01*
X133233000Y-93863000D02*
X134483000Y-93863000D01*
G75*
G02*
X134733000Y-94113000I0J-250000D01*
G01*
X134733000Y-94863000D01*
G75*
G02*
X134483000Y-95113000I-250000J0D01*
G01*
X133233000Y-95113000D01*
G75*
G02*
X132983000Y-94863000I0J250000D01*
G01*
X132983000Y-94113000D01*
G75*
G02*
X133233000Y-93863000I250000J0D01*
G01*
G37*
G36*
G01*
X133233000Y-96663000D02*
X134483000Y-96663000D01*
G75*
G02*
X134733000Y-96913000I0J-250000D01*
G01*
X134733000Y-97663000D01*
G75*
G02*
X134483000Y-97913000I-250000J0D01*
G01*
X133233000Y-97913000D01*
G75*
G02*
X132983000Y-97663000I0J250000D01*
G01*
X132983000Y-96913000D01*
G75*
G02*
X133233000Y-96663000I250000J0D01*
G01*
G37*
G36*
G01*
X135773000Y-96663000D02*
X137023000Y-96663000D01*
G75*
G02*
X137273000Y-96913000I0J-250000D01*
G01*
X137273000Y-97663000D01*
G75*
G02*
X137023000Y-97913000I-250000J0D01*
G01*
X135773000Y-97913000D01*
G75*
G02*
X135523000Y-97663000I0J250000D01*
G01*
X135523000Y-96913000D01*
G75*
G02*
X135773000Y-96663000I250000J0D01*
G01*
G37*
G36*
G01*
X135773000Y-93863000D02*
X137023000Y-93863000D01*
G75*
G02*
X137273000Y-94113000I0J-250000D01*
G01*
X137273000Y-94863000D01*
G75*
G02*
X137023000Y-95113000I-250000J0D01*
G01*
X135773000Y-95113000D01*
G75*
G02*
X135523000Y-94863000I0J250000D01*
G01*
X135523000Y-94113000D01*
G75*
G02*
X135773000Y-93863000I250000J0D01*
G01*
G37*
G36*
G01*
X138313000Y-93857000D02*
X139563000Y-93857000D01*
G75*
G02*
X139813000Y-94107000I0J-250000D01*
G01*
X139813000Y-94857000D01*
G75*
G02*
X139563000Y-95107000I-250000J0D01*
G01*
X138313000Y-95107000D01*
G75*
G02*
X138063000Y-94857000I0J250000D01*
G01*
X138063000Y-94107000D01*
G75*
G02*
X138313000Y-93857000I250000J0D01*
G01*
G37*
G36*
G01*
X138313000Y-96657000D02*
X139563000Y-96657000D01*
G75*
G02*
X139813000Y-96907000I0J-250000D01*
G01*
X139813000Y-97657000D01*
G75*
G02*
X139563000Y-97907000I-250000J0D01*
G01*
X138313000Y-97907000D01*
G75*
G02*
X138063000Y-97657000I0J250000D01*
G01*
X138063000Y-96907000D01*
G75*
G02*
X138313000Y-96657000I250000J0D01*
G01*
G37*
G36*
G01*
X140853000Y-96663000D02*
X142103000Y-96663000D01*
G75*
G02*
X142353000Y-96913000I0J-250000D01*
G01*
X142353000Y-97663000D01*
G75*
G02*
X142103000Y-97913000I-250000J0D01*
G01*
X140853000Y-97913000D01*
G75*
G02*
X140603000Y-97663000I0J250000D01*
G01*
X140603000Y-96913000D01*
G75*
G02*
X140853000Y-96663000I250000J0D01*
G01*
G37*
G36*
G01*
X140853000Y-93863000D02*
X142103000Y-93863000D01*
G75*
G02*
X142353000Y-94113000I0J-250000D01*
G01*
X142353000Y-94863000D01*
G75*
G02*
X142103000Y-95113000I-250000J0D01*
G01*
X140853000Y-95113000D01*
G75*
G02*
X140603000Y-94863000I0J250000D01*
G01*
X140603000Y-94113000D01*
G75*
G02*
X140853000Y-93863000I250000J0D01*
G01*
G37*
G36*
G01*
X143180750Y-97683500D02*
X144093250Y-97683500D01*
G75*
G02*
X144337000Y-97927250I0J-243750D01*
G01*
X144337000Y-98414750D01*
G75*
G02*
X144093250Y-98658500I-243750J0D01*
G01*
X143180750Y-98658500D01*
G75*
G02*
X142937000Y-98414750I0J243750D01*
G01*
X142937000Y-97927250D01*
G75*
G02*
X143180750Y-97683500I243750J0D01*
G01*
G37*
G36*
G01*
X143180750Y-95808500D02*
X144093250Y-95808500D01*
G75*
G02*
X144337000Y-96052250I0J-243750D01*
G01*
X144337000Y-96539750D01*
G75*
G02*
X144093250Y-96783500I-243750J0D01*
G01*
X143180750Y-96783500D01*
G75*
G02*
X142937000Y-96539750I0J243750D01*
G01*
X142937000Y-96052250D01*
G75*
G02*
X143180750Y-95808500I243750J0D01*
G01*
G37*
G36*
G01*
X144474250Y-111485500D02*
X143561750Y-111485500D01*
G75*
G02*
X143318000Y-111241750I0J243750D01*
G01*
X143318000Y-110754250D01*
G75*
G02*
X143561750Y-110510500I243750J0D01*
G01*
X144474250Y-110510500D01*
G75*
G02*
X144718000Y-110754250I0J-243750D01*
G01*
X144718000Y-111241750D01*
G75*
G02*
X144474250Y-111485500I-243750J0D01*
G01*
G37*
G36*
G01*
X144474250Y-109610500D02*
X143561750Y-109610500D01*
G75*
G02*
X143318000Y-109366750I0J243750D01*
G01*
X143318000Y-108879250D01*
G75*
G02*
X143561750Y-108635500I243750J0D01*
G01*
X144474250Y-108635500D01*
G75*
G02*
X144718000Y-108879250I0J-243750D01*
G01*
X144718000Y-109366750D01*
G75*
G02*
X144474250Y-109610500I-243750J0D01*
G01*
G37*
G36*
G01*
X142357000Y-109337000D02*
X141107000Y-109337000D01*
G75*
G02*
X140857000Y-109087000I0J250000D01*
G01*
X140857000Y-108337000D01*
G75*
G02*
X141107000Y-108087000I250000J0D01*
G01*
X142357000Y-108087000D01*
G75*
G02*
X142607000Y-108337000I0J-250000D01*
G01*
X142607000Y-109087000D01*
G75*
G02*
X142357000Y-109337000I-250000J0D01*
G01*
G37*
G36*
G01*
X142357000Y-112137000D02*
X141107000Y-112137000D01*
G75*
G02*
X140857000Y-111887000I0J250000D01*
G01*
X140857000Y-111137000D01*
G75*
G02*
X141107000Y-110887000I250000J0D01*
G01*
X142357000Y-110887000D01*
G75*
G02*
X142607000Y-111137000I0J-250000D01*
G01*
X142607000Y-111887000D01*
G75*
G02*
X142357000Y-112137000I-250000J0D01*
G01*
G37*
G36*
G01*
X139817000Y-112137000D02*
X138567000Y-112137000D01*
G75*
G02*
X138317000Y-111887000I0J250000D01*
G01*
X138317000Y-111137000D01*
G75*
G02*
X138567000Y-110887000I250000J0D01*
G01*
X139817000Y-110887000D01*
G75*
G02*
X140067000Y-111137000I0J-250000D01*
G01*
X140067000Y-111887000D01*
G75*
G02*
X139817000Y-112137000I-250000J0D01*
G01*
G37*
G36*
G01*
X139817000Y-109337000D02*
X138567000Y-109337000D01*
G75*
G02*
X138317000Y-109087000I0J250000D01*
G01*
X138317000Y-108337000D01*
G75*
G02*
X138567000Y-108087000I250000J0D01*
G01*
X139817000Y-108087000D01*
G75*
G02*
X140067000Y-108337000I0J-250000D01*
G01*
X140067000Y-109087000D01*
G75*
G02*
X139817000Y-109337000I-250000J0D01*
G01*
G37*
G36*
G01*
X137277000Y-109337000D02*
X136027000Y-109337000D01*
G75*
G02*
X135777000Y-109087000I0J250000D01*
G01*
X135777000Y-108337000D01*
G75*
G02*
X136027000Y-108087000I250000J0D01*
G01*
X137277000Y-108087000D01*
G75*
G02*
X137527000Y-108337000I0J-250000D01*
G01*
X137527000Y-109087000D01*
G75*
G02*
X137277000Y-109337000I-250000J0D01*
G01*
G37*
G36*
G01*
X137277000Y-112137000D02*
X136027000Y-112137000D01*
G75*
G02*
X135777000Y-111887000I0J250000D01*
G01*
X135777000Y-111137000D01*
G75*
G02*
X136027000Y-110887000I250000J0D01*
G01*
X137277000Y-110887000D01*
G75*
G02*
X137527000Y-111137000I0J-250000D01*
G01*
X137527000Y-111887000D01*
G75*
G02*
X137277000Y-112137000I-250000J0D01*
G01*
G37*
G36*
G01*
X134737000Y-112137000D02*
X133487000Y-112137000D01*
G75*
G02*
X133237000Y-111887000I0J250000D01*
G01*
X133237000Y-111137000D01*
G75*
G02*
X133487000Y-110887000I250000J0D01*
G01*
X134737000Y-110887000D01*
G75*
G02*
X134987000Y-111137000I0J-250000D01*
G01*
X134987000Y-111887000D01*
G75*
G02*
X134737000Y-112137000I-250000J0D01*
G01*
G37*
G36*
G01*
X134737000Y-109337000D02*
X133487000Y-109337000D01*
G75*
G02*
X133237000Y-109087000I0J250000D01*
G01*
X133237000Y-108337000D01*
G75*
G02*
X133487000Y-108087000I250000J0D01*
G01*
X134737000Y-108087000D01*
G75*
G02*
X134987000Y-108337000I0J-250000D01*
G01*
X134987000Y-109087000D01*
G75*
G02*
X134737000Y-109337000I-250000J0D01*
G01*
G37*
G36*
G01*
X128508000Y-108880000D02*
X126508000Y-108880000D01*
G75*
G02*
X126258000Y-108630000I0J250000D01*
G01*
X126258000Y-104730000D01*
G75*
G02*
X126508000Y-104480000I250000J0D01*
G01*
X128508000Y-104480000D01*
G75*
G02*
X128758000Y-104730000I0J-250000D01*
G01*
X128758000Y-108630000D01*
G75*
G02*
X128508000Y-108880000I-250000J0D01*
G01*
G37*
G36*
G01*
X128508000Y-116280000D02*
X126508000Y-116280000D01*
G75*
G02*
X126258000Y-116030000I0J250000D01*
G01*
X126258000Y-112130000D01*
G75*
G02*
X126508000Y-111880000I250000J0D01*
G01*
X128508000Y-111880000D01*
G75*
G02*
X128758000Y-112130000I0J-250000D01*
G01*
X128758000Y-116030000D01*
G75*
G02*
X128508000Y-116280000I-250000J0D01*
G01*
G37*
D10*
X146402000Y-103124000D03*
X139602000Y-103124000D03*
D11*
X149479000Y-108469000D03*
X149479000Y-113919000D03*
G36*
G01*
X146705500Y-92912250D02*
X146705500Y-91999750D01*
G75*
G02*
X146949250Y-91756000I243750J0D01*
G01*
X147436750Y-91756000D01*
G75*
G02*
X147680500Y-91999750I0J-243750D01*
G01*
X147680500Y-92912250D01*
G75*
G02*
X147436750Y-93156000I-243750J0D01*
G01*
X146949250Y-93156000D01*
G75*
G02*
X146705500Y-92912250I0J243750D01*
G01*
G37*
G36*
G01*
X144830500Y-92912250D02*
X144830500Y-91999750D01*
G75*
G02*
X145074250Y-91756000I243750J0D01*
G01*
X145561750Y-91756000D01*
G75*
G02*
X145805500Y-91999750I0J-243750D01*
G01*
X145805500Y-92912250D01*
G75*
G02*
X145561750Y-93156000I-243750J0D01*
G01*
X145074250Y-93156000D01*
G75*
G02*
X144830500Y-92912250I0J243750D01*
G01*
G37*
G36*
G01*
X130861750Y-101777500D02*
X131774250Y-101777500D01*
G75*
G02*
X132018000Y-102021250I0J-243750D01*
G01*
X132018000Y-102508750D01*
G75*
G02*
X131774250Y-102752500I-243750J0D01*
G01*
X130861750Y-102752500D01*
G75*
G02*
X130618000Y-102508750I0J243750D01*
G01*
X130618000Y-102021250D01*
G75*
G02*
X130861750Y-101777500I243750J0D01*
G01*
G37*
G36*
G01*
X130861750Y-103652500D02*
X131774250Y-103652500D01*
G75*
G02*
X132018000Y-103896250I0J-243750D01*
G01*
X132018000Y-104383750D01*
G75*
G02*
X131774250Y-104627500I-243750J0D01*
G01*
X130861750Y-104627500D01*
G75*
G02*
X130618000Y-104383750I0J243750D01*
G01*
X130618000Y-103896250D01*
G75*
G02*
X130861750Y-103652500I243750J0D01*
G01*
G37*
D12*
X152640000Y-98298000D03*
X152640000Y-97028000D03*
X152640000Y-95758000D03*
X152640000Y-94488000D03*
X147080000Y-94488000D03*
X147080000Y-95758000D03*
X147080000Y-97028000D03*
X147080000Y-98298000D03*
D13*
X149257500Y-95618000D03*
X149257500Y-97168000D03*
X150462500Y-95618000D03*
X150462500Y-97168000D03*
M02*
